<svg xmlns="http://www.w3.org/2000/svg" width="1200" height="700" viewBox="0 0 1200 700" fill="none">
  <defs>
    <linearGradient id="g1" x1="80" y1="80" x2="1120" y2="620" gradientUnits="userSpaceOnUse">
      <stop stop-color="#0088CC" stop-opacity="0.16"/>
      <stop offset="0.55" stop-color="#005A9E" stop-opacity="0.10"/>
      <stop offset="1" stop-color="#CC3333" stop-opacity="0.10"/>
    </linearGradient>
    <linearGradient id="g2" x1="0" y1="0" x2="1" y2="1">
      <stop stop-color="#0088CC"/>
      <stop offset="1" stop-color="#005A9E"/>
    </linearGradient>
    <filter id="shadow" x="-30" y="-30" width="1260" height="760" color-interpolation-filters="sRGB">
      <feDropShadow dx="0" dy="14" stdDeviation="18" flood-color="#020617" flood-opacity="0.14"/>
    </filter>
  </defs>

  <rect x="40" y="40" width="1120" height="620" rx="32" fill="url(#g1)" stroke="#CBD5E1"/>

  <g filter="url(#shadow)">
    <rect x="120" y="135" width="260" height="130" rx="22" fill="#FFFFFF"/>
    <rect x="470" y="135" width="260" height="130" rx="22" fill="#FFFFFF"/>
    <rect x="820" y="135" width="260" height="130" rx="22" fill="#FFFFFF"/>

    <rect x="120" y="395" width="260" height="130" rx="22" fill="#FFFFFF"/>
    <rect x="470" y="395" width="260" height="130" rx="22" fill="#FFFFFF"/>
    <rect x="820" y="395" width="260" height="130" rx="22" fill="#FFFFFF"/>
  </g>

  <g stroke="#94A3B8" stroke-width="8" stroke-linecap="round">
    <path d="M380 200 H470"/>
    <path d="M730 200 H820"/>
    <path d="M250 265 V395"/>
    <path d="M600 265 V395"/>
    <path d="M950 265 V395"/>
    <path d="M380 460 H470"/>
    <path d="M730 460 H820"/>
  </g>

  <g>
    <circle cx="380" cy="200" r="12" fill="#0088CC"/>
    <circle cx="470" cy="200" r="12" fill="#0088CC"/>
    <circle cx="730" cy="200" r="12" fill="#0088CC"/>
    <circle cx="820" cy="200" r="12" fill="#0088CC"/>

    <circle cx="250" cy="265" r="12" fill="#CC3333"/>
    <circle cx="600" cy="265" r="12" fill="#CC3333"/>
    <circle cx="950" cy="265" r="12" fill="#CC3333"/>

    <circle cx="380" cy="460" r="12" fill="#005A9E"/>
    <circle cx="470" cy="460" r="12" fill="#005A9E"/>
    <circle cx="730" cy="460" r="12" fill="#005A9E"/>
    <circle cx="820" cy="460" r="12" fill="#005A9E"/>
  </g>

  <g font-family="Nunito, Arial, sans-serif" font-weight="900" fill="#0F172A">
    <text x="155" y="185" font-size="22">Collect Data</text>
    <text x="155" y="215" font-size="16" fill="#475569" font-weight="700">Schools • Students • Subjects</text>

    <text x="505" y="185" font-size="22">Enter Marks</text>
    <text x="505" y="215" font-size="16" fill="#475569" font-weight="700">Manual or Excel Upload</text>

    <text x="850" y="185" font-size="22">Review & Approve</text>
    <text x="850" y="215" font-size="16" fill="#475569" font-weight="700">Validation & Controls</text>

    <text x="155" y="445" font-size="22">Process Results</text>
    <text x="155" y="475" font-size="16" fill="#475569" font-weight="700">Rules • Totals • Grades</text>

    <text x="505" y="445" font-size="22">Analyze</text>
    <text x="505" y="475" font-size="16" fill="#475569" font-weight="700">Rankings • Trends • Insights</text>

    <text x="850" y="445" font-size="22">Publish Reports</text>
    <text x="850" y="475" font-size="16" fill="#475569" font-weight="700">PDF • Excel • Dashboards</text>
  </g>

  <g>
    <rect x="120" y="92" width="210" height="36" rx="18" fill="rgba(0,136,204,0.10)" stroke="rgba(0,136,204,0.18)"/>
    <text x="138" y="116" font-family="Nunito, Arial, sans-serif" font-weight="900" font-size="14" fill="#005A9E" letter-spacing="2">EMaS FLOW</text>

    <circle cx="1060" cy="103" r="7" fill="#0088CC" opacity="0.55"/>
    <circle cx="1090" cy="118" r="5" fill="#CC3333" opacity="0.55"/>
    <circle cx="1120" cy="98" r="6" fill="#FB923C" opacity="0.55"/>
  </g>
</svg>
