<?xml version="1.0" encoding="utf-8" standalone="yes"?>
<!DOCTYPE svg PUBLIC "-//W3C//DTD SVG 1.1//EN" "http://www.w3.org/Graphics/SVG/1.1/DTD/svg11.dtd">
<svg style="fill:none;stroke:none;fill-rule:evenodd;clip-rule:evenodd;stroke-linecap:round;stroke-linejoin:round;stroke-miterlimit:1.5;" version="1.1" xmlns="http://www.w3.org/2000/svg" xmlns:xlink="http://www.w3.org/1999/xlink" width="746" height="746" viewBox="0 0 746 746"><style class="text-font-style fontImports" data-font-family="Roboto">@import url(https://fonts.googleapis.com/css2?family=Roboto:wght@400;700&amp;amp;display=block);</style><g id="items" style="isolation: isolate"><g id="blend" style="mix-blend-mode: normal"><g id="g-root-cp_0_g-0_v6qxeq1d6ur5v-fill" data-item-order="-483589" transform="translate(236.47000122070312, 269.46875)"></g><g id="g-root-cp_0_g-0_v6qxeq1d6ur5v-stroke" data-item-order="-483589" transform="translate(236.47000122070312, 269.46875)"><g id="cp_0_g-0_v6qxeq1d6ur5v-stroke" fill="none" stroke-linecap="round" stroke-linejoin="round" stroke-miterlimit="4" stroke="#f4f4f4" stroke-width="2" stroke-opacity="1"><g><path d="M 231.71 184.53C 231.71 184.53 225.59 180.99 218.35 176.82C 212.63 173.52 206.23 169.82 201.6 167.15C 205.17 159.58 207.44 151.29 208.17 142.55L 242.95 142.55L 242.95 150.71L 263.07 136.53L 242.95 122.35L 242.95 130.51L 208.17 130.51C 207.45 121.77 205.17 113.48 201.6 105.91L 231.7 88.53L 235.78 95.6L 246.11 73.26L 221.6 71.04L 225.68 78.11C 225.68 78.11 219.56 81.65 212.32 85.82C 206.6 89.12 200.19 92.82 195.56 95.5C 190.67 88.48 184.57 82.38 177.56 77.5L 194.95 47.38L 202.02 51.46L 199.8 26.95L 177.46 37.28L 184.53 41.36C 184.53 41.36 180.99 47.48 176.82 54.72C 173.52 60.44 169.82 66.84 167.15 71.47C 159.58 67.9 151.29 65.63 142.55 64.9L 142.55 30.12L 150.71 30.12L 136.53 10L 122.35 30.12L 130.51 30.12L 130.51 64.9C 121.77 65.62 113.48 67.9 105.91 71.47L 88.53 41.37L 95.6 37.29L 73.26 26.96L 71.04 51.47L 78.11 47.39C 78.11 47.39 81.65 53.51 85.82 60.75C 89.12 66.47 92.82 72.88 95.5 77.51C 88.48 82.4 82.38 88.5 77.5 95.51L 47.38 78.12L 51.46 71.05L 26.95 73.27L 37.28 95.61L 41.36 88.54C 41.36 88.54 47.48 92.08 54.72 96.25C 60.44 99.55 66.84 103.25 71.47 105.92C 67.9 113.49 65.63 121.78 64.9 130.52L 30.12 130.52L 30.12 122.36L 10 136.54L 30.12 150.72L 30.12 142.56L 64.9 142.56C 65.62 151.3 67.9 159.59 71.47 167.16L 41.37 184.54L 37.29 177.47L 26.96 199.81L 51.47 202.03L 47.39 194.96C 47.39 194.96 53.51 191.42 60.75 187.25C 66.47 183.95 72.88 180.25 77.51 177.57C 82.4 184.59 88.5 190.69 95.51 195.57L 78.12 225.69L 71.05 221.61L 73.27 246.12L 95.61 235.79L 88.54 231.71C 88.54 231.71 92.08 225.59 96.25 218.35C 99.55 212.63 103.25 206.23 105.92 201.6C 113.49 205.17 121.78 207.44 130.52 208.17L 130.52 242.95L 122.36 242.95L 136.54 263.07L 150.72 242.95L 142.56 242.95L 142.56 208.17C 151.3 207.45 159.59 205.17 167.16 201.6L 184.54 231.7L 177.47 235.78L 199.81 246.11L 202.03 221.6L 194.96 225.68C 194.96 225.68 191.42 219.56 187.25 212.32C 183.95 206.6 180.25 200.19 177.57 195.56C 184.59 190.67 190.69 184.57 195.57 177.56L 225.69 194.95L 221.61 202.02L 246.12 199.8L 235.79 177.46L 231.71 184.53Z"></path></g></g></g><g id="g-root-cp_1_g-1_hvww4i1d6upl0-fill" data-item-order="-483585" transform="translate(331.739990234375, 190.81982421875)"></g><g id="g-root-cp_1_g-1_hvww4i1d6upl0-stroke" data-item-order="-483585" transform="translate(331.739990234375, 190.81982421875)"><g id="cp_1_g-1_hvww4i1d6upl0-stroke" fill="none" stroke-linecap="round" stroke-linejoin="round" stroke-miterlimit="4" stroke="#43dd93" stroke-width="2" stroke-opacity="1"><g><path d="M 72.52 41.26C 72.52 58.5244 58.5244 72.52 41.26 72.52C 23.9956 72.52 10 58.5244 10 41.26C 10 23.9956 23.9956 10 41.26 10C 58.5244 10 72.52 23.9956 72.52 41.26Z"></path></g></g></g><g id="g-root-cp_2_g-2_909vvm1d6uqdp-fill" data-item-order="-483581" transform="translate(418.70001220703125, 214.1201171875)"></g><g id="g-root-cp_2_g-2_909vvm1d6uqdp-stroke" data-item-order="-483581" transform="translate(418.70001220703125, 214.1201171875)"><g id="cp_2_g-2_909vvm1d6uqdp-stroke" fill="none" stroke-linecap="round" stroke-linejoin="round" stroke-miterlimit="4" stroke="#ffe711" stroke-width="2" stroke-opacity="1"><g><path d="M 72.52 41.26C 72.52 58.5244 58.5244 72.52 41.26 72.52C 23.9956 72.52 10 58.5244 10 41.26C 10 23.9956 23.9956 10 41.26 10C 58.5244 10 72.52 23.9956 72.52 41.26Z"></path></g></g></g><g id="g-root-cp_3_g-3_4kgdr61d6ur5y-fill" data-item-order="-483577" transform="translate(482.3599853515625, 277.77978515625)"></g><g id="g-root-cp_3_g-3_4kgdr61d6ur5y-stroke" data-item-order="-483577" transform="translate(482.3599853515625, 277.77978515625)"><g id="cp_3_g-3_4kgdr61d6ur5y-stroke" fill="none" stroke-linecap="round" stroke-linejoin="round" stroke-miterlimit="4" stroke="#1ac3fb" stroke-width="2" stroke-opacity="1"><g><path d="M 72.52 41.26C 72.52 58.5244 58.5244 72.52 41.26 72.52C 23.9956 72.52 10 58.5244 10 41.26C 10 23.9956 23.9956 10 41.26 10C 58.5244 10 72.52 23.9956 72.52 41.26Z"></path></g></g></g><g id="g-root-cp_4_g-4_1uqjwki1d6uolr-fill" data-item-order="-483573" transform="translate(505.6600341796875, 364.740234375)"></g><g id="g-root-cp_4_g-4_1uqjwki1d6uolr-stroke" data-item-order="-483573" transform="translate(505.6600341796875, 364.740234375)"><g id="cp_4_g-4_1uqjwki1d6uolr-stroke" fill="none" stroke-linecap="round" stroke-linejoin="round" stroke-miterlimit="4" stroke="#f366bb" stroke-width="2" stroke-opacity="1"><g><path d="M 72.52 41.26C 72.52 58.5244 58.5244 72.52 41.26 72.52C 23.9956 72.52 10 58.5244 10 41.26C 10 23.9956 23.9956 10 41.26 10C 58.5244 10 72.52 23.9956 72.52 41.26Z"></path></g></g></g><g id="g-root-cp_5_g-5_1qaqeg21d6upe0-fill" data-item-order="-483569" transform="translate(482.3599853515625, 451.69921875)"></g><g id="g-root-cp_5_g-5_1qaqeg21d6upe0-stroke" data-item-order="-483569" transform="translate(482.3599853515625, 451.69921875)"><g id="cp_5_g-5_1qaqeg21d6upe0-stroke" fill="none" stroke-linecap="round" stroke-linejoin="round" stroke-miterlimit="4" stroke="#a6da37" stroke-width="2" stroke-opacity="1"><g><path d="M 72.52 41.26C 72.52 58.5244 58.5244 72.52 41.26 72.52C 23.9956 72.52 10 58.5244 10 41.26C 10 23.9956 23.9956 10 41.26 10C 58.5244 10 72.52 23.9956 72.52 41.26Z"></path></g></g></g><g id="g-root-cp_6_g-6_1luwwbm1d6uq69-fill" data-item-order="-483565" transform="translate(418.70001220703125, 515.35888671875)"></g><g id="g-root-cp_6_g-6_1luwwbm1d6uq69-stroke" data-item-order="-483565" transform="translate(418.70001220703125, 515.35888671875)"><g id="cp_6_g-6_1luwwbm1d6uq69-stroke" fill="none" stroke-linecap="round" stroke-linejoin="round" stroke-miterlimit="4" stroke="#f79438" stroke-width="2" stroke-opacity="1"><g><path d="M 72.52 41.26C 72.52 58.5244 58.5244 72.52 41.26 72.52C 23.9956 72.52 10 58.5244 10 41.26C 10 23.9956 23.9956 10 41.26 10C 58.5244 10 72.52 23.9956 72.52 41.26Z"></path></g></g></g><g id="g-root-cp_7_g-7_1cz9w2q1d6uqyy-fill" data-item-order="-483561" transform="translate(331.739990234375, 538.66015625)"></g><g id="g-root-cp_7_g-7_1cz9w2q1d6uqyy-stroke" data-item-order="-483561" transform="translate(331.739990234375, 538.66015625)"><g id="cp_7_g-7_1cz9w2q1d6uqyy-stroke" fill="none" stroke-linecap="round" stroke-linejoin="round" stroke-miterlimit="4" stroke="#8769fd" stroke-width="2" stroke-opacity="1"><g><path d="M 72.52 41.26C 72.52 58.5244 58.5244 72.52 41.26 72.52C 23.9956 72.52 10 58.5244 10 41.26C 10 23.9956 23.9956 10 41.26 10C 58.5244 10 72.52 23.9956 72.52 41.26Z"></path></g></g></g><g id="g-root-cp_8_g-8_18k2v1e1d6uolf-fill" data-item-order="-483557" transform="translate(244.77999877929688, 515.35888671875)"></g><g id="g-root-cp_8_g-8_18k2v1e1d6uolf-stroke" data-item-order="-483557" transform="translate(244.77999877929688, 515.35888671875)"><g id="cp_8_g-8_18k2v1e1d6uolf-stroke" fill="none" stroke-linecap="round" stroke-linejoin="round" stroke-miterlimit="4" stroke="#cb68f9" stroke-width="2" stroke-opacity="1"><g><path d="M 72.52 41.26C 72.52 58.5244 58.5244 72.52 41.26 72.52C 23.9956 72.52 10 58.5244 10 41.26C 10 23.9956 23.9956 10 41.26 10C 58.5244 10 72.52 23.9956 72.52 41.26Z"></path></g></g></g><g id="g-root-cp_9_g-9_zofusi1d6upe4-fill" data-item-order="-483553" transform="translate(181.1199951171875, 451.69921875)"></g><g id="g-root-cp_9_g-9_zofusi1d6upe4-stroke" data-item-order="-483553" transform="translate(181.1199951171875, 451.69921875)"><g id="cp_9_g-9_zofusi1d6upe4-stroke" fill="none" stroke-linecap="round" stroke-linejoin="round" stroke-miterlimit="4" stroke="#fb6762" stroke-width="2" stroke-opacity="1"><g><path d="M 72.52 41.26C 72.52 58.5244 58.5244 72.52 41.26 72.52C 23.9956 72.52 10 58.5244 10 41.26C 10 23.9956 23.9956 10 41.26 10C 58.5244 10 72.52 23.9956 72.52 41.26Z"></path></g></g></g><g id="g-root-cp_10_g-10_v8mco21d6uq6d-fill" data-item-order="-483549" transform="translate(157.82000732421875, 364.740234375)"></g><g id="g-root-cp_10_g-10_v8mco21d6uq6d-stroke" data-item-order="-483549" transform="translate(157.82000732421875, 364.740234375)"><g id="cp_10_g-10_v8mco21d6uq6d-stroke" fill="none" stroke-linecap="round" stroke-linejoin="round" stroke-miterlimit="4" stroke="#f79438" stroke-width="2" stroke-opacity="1"><g><path d="M 72.52 41.26C 72.52 58.5244 58.5244 72.52 41.26 72.52C 23.9956 72.52 10 58.5244 10 41.26C 10 23.9956 23.9956 10 41.26 10C 58.5244 10 72.52 23.9956 72.52 41.26Z"></path></g></g></g><g id="g-root-cp_11_g-11_mczcf61d6uqz2-fill" data-item-order="-483545" transform="translate(181.1199951171875, 277.77978515625)"></g><g id="g-root-cp_11_g-11_mczcf61d6uqz2-stroke" data-item-order="-483545" transform="translate(181.1199951171875, 277.77978515625)"><g id="cp_11_g-11_mczcf61d6uqz2-stroke" fill="none" stroke-linecap="round" stroke-linejoin="round" stroke-miterlimit="4" stroke="#b7b7b7" stroke-width="2" stroke-opacity="1"><g><path d="M 72.52 41.26C 72.52 58.5244 58.5244 72.52 41.26 72.52C 23.9956 72.52 10 58.5244 10 41.26C 10 23.9956 23.9956 10 41.26 10C 58.5244 10 72.52 23.9956 72.52 41.26Z"></path></g></g></g><g id="g-root-cp_12_g-12_hxsbdu1d6uolj-fill" data-item-order="-483541" transform="translate(244.77999877929688, 214.1201171875)"></g><g id="g-root-cp_12_g-12_hxsbdu1d6uolj-stroke" data-item-order="-483541" transform="translate(244.77999877929688, 214.1201171875)"><g id="cp_12_g-12_hxsbdu1d6uolj-stroke" fill="none" stroke-linecap="round" stroke-linejoin="round" stroke-miterlimit="4" stroke="#4f91fc" stroke-width="2" stroke-opacity="1"><g><path d="M 72.52 41.26C 72.52 58.5244 58.5244 72.52 41.26 72.52C 23.9956 72.52 10 58.5244 10 41.26C 10 23.9956 23.9956 10 41.26 10C 58.5244 10 72.52 23.9956 72.52 41.26Z"></path></g></g></g><g id="g-root-tx_mfumowae_8z0xpe1d6w35v-fill" data-item-order="0" transform="translate(42.046875, 272)"><g id="tx_mfumowae_8z0xpe1d6w35v-fill-merged" stroke="none" fill="#b7b7b7" fill-opacity="1"><g><text style="font: 12px Roboto, sans-serif; white-space: pre;" transform="translate(114.953125, 17)" font-size="12px" font-family="Roboto, sans-serif"><tspan x="-102.95" y="7" dominant-baseline="ideographic">Mfumo wa e-Office</tspan></text></g></g></g><g id="g-root-tx_mfumowae_8z0xpe1d6w35v-stroke" data-item-order="0" transform="translate(42.046875, 272)"></g><g id="g-root-ic_lock_m98hwi1d71pft-fill" data-item-order="0" transform="translate(432, 227)"></g><g id="g-root-ic_lock_m98hwi1d71pft-stroke" data-item-order="0" transform="translate(432, 227)"><g id="ic_lock_m98hwi1d71pft-stroke" fill="none" stroke-linecap="round" stroke-linejoin="round" stroke-miterlimit="4" stroke="#ffe711" stroke-width="2" stroke-opacity="1"><g><path d="M 18.9685 28.795C 14.712866 28.818169 11.173161 32.074574 10.795893 36.313515C 10.418626 40.55246 13.327607 44.382801 17.512262 45.157158C 21.696917 45.931511 25.783924 43.395752 26.948502 39.302498L 28.768 39.302498L 30.268 40.751499L 31.768 39.310001L 33.268002 39.310001L 34.767998 40.740997L 36.267998 39.310001L 38.517998 39.2995L 40.7575 36.962502L 38.5 34.795002L 26.926001 34.795002C 25.911028 31.242376 22.663265 28.793545 18.9685 28.795ZM 13.7575 37.045002C 13.7575 38.28764 14.764859 39.295002 16.0075 39.295002C 17.250141 39.295002 18.2575 38.28764 18.2575 37.045002C 18.2575 35.802361 17.250141 34.795002 16.0075 34.795002C 14.764859 34.795002 13.7575 35.802361 13.7575 37.045002ZM 35.5 25.045C 35.707104 25.044172 35.875668 25.211393 35.876495 25.418497C 35.877323 25.625603 35.710102 25.794167 35.502998 25.794994C 35.295895 25.795824 35.127327 25.628605 35.126499 25.421501C 35.126495 25.214729 35.293236 25.046648 35.5 25.045M 35.5 25.795L 35.5075 29.545M 43.7575 36.2575C 44.58593 36.2575 45.2575 35.58593 45.2575 34.7575L 45.271 22.8025C 45.266872 21.977003 44.596508 21.30999 43.771 21.309999L 27.271 21.296501C 26.445503 21.300627 25.77849 21.970993 25.7785 22.796501L 25.7785 27.34M 28.774 21.295L 28.7575 17.575001C 28.740932 13.847078 31.749578 10.811569 35.477501 10.795C 39.205421 10.778432 42.240929 13.787078 42.2575 17.514999L 42.274002 21.295"></path></g></g></g><g id="g-root-ic_1_1cw5oyq1d734zy-fill" data-item-order="0" transform="translate(258, 227)"></g><g id="g-root-ic_1_1cw5oyq1d734zy-stroke" data-item-order="0" transform="translate(258, 227)"><g id="ic_1_1cw5oyq1d734zy-stroke" fill="none" stroke-linecap="round" stroke-linejoin="round" stroke-miterlimit="4" stroke="#4f91fc" stroke-width="2" stroke-opacity="1"><g><path d="M 33.25 39.25L 13.75 39.25M 23.5 41.875C 23.707108 41.875 23.875 42.042892 23.875 42.25L 23.875 42.25C 23.875 42.457108 23.707108 42.625 23.5 42.625L 23.5 42.625C 23.292892 42.625 23.125 42.457108 23.125 42.25L 23.125 42.25C 23.125 42.042892 23.292892 41.875 23.5 41.875M 23.5 41.875L 23.5 41.875M 33.25 33.25L 33.25 42.25C 33.25 43.906857 31.906855 45.25 30.25 45.25L 16.75 45.25C 15.093145 45.25 13.75 43.906857 13.75 42.25L 13.75 13.75C 13.75 12.093145 15.093145 10.75 16.75 10.75L 25 10.75M 29.875 19.75C 29.875 21.613962 31.38604 23.125 33.25 23.125C 35.11396 23.125 36.625 21.613962 36.625 19.75C 36.625 17.88604 35.11396 16.375 33.25 16.375C 31.38604 16.375 29.875 17.88604 29.875 19.75ZM 36.625 19.75L 36.625 21.4375C 36.624599 22.183544 36.920792 22.899145 37.448322 23.426676C 37.975853 23.954208 38.691452 24.250397 39.437496 24.249998L 39.4375 24.25C 40.18354 24.250397 40.899143 23.954208 41.426674 23.426676C 41.954208 22.899145 42.250397 22.183544 42.249996 21.4375L 42.25 20.167C 42.332466 15.182156 38.460526 11.023381 33.482498 10.75C 28.863537 10.601691 24.882915 13.975777 24.272522 18.556631C 23.662128 23.137487 26.620363 27.436165 31.117001 28.502501C 32.582371 28.847387 34.109943 28.827816 35.565998 28.445499"></path></g></g></g><g id="g-root-tx_hutoaufi_mgq6xu1d6uozq-fill" data-item-order="0" transform="translate(502, 180)"><g id="tx_hutoaufi_mgq6xu1d6uozq-fill-merged" stroke="none" fill="#f4f4f4" fill-opacity="1"><g><text style="font: 10.5px Roboto, sans-serif; white-space: pre;" transform="translate(10, 34)" font-size="10.5px" font-family="Roboto, sans-serif"><tspan x="2" y="-12" dominant-baseline="ideographic">Hutoa ufikiaji salama </tspan><tspan x="2" y="0" dominant-baseline="ideographic">kwa watumiaji </tspan><tspan x="2" y="12" dominant-baseline="ideographic">kulingana na </tspan><tspan x="2" y="24" dominant-baseline="ideographic">majukumu yao.</tspan></text></g></g></g><g id="g-root-tx_hutoaufi_mgq6xu1d6uozq-stroke" data-item-order="0" transform="translate(502, 180)"></g><g id="g-root-tx_usimamiz_940qea1d6uoej-fill" data-item-order="0" transform="translate(579, 252)"><g id="tx_usimamiz_940qea1d6uoej-fill-merged" stroke="none" fill="#1ac3fb" fill-opacity="1"><g><text style="font: 12px Roboto, sans-serif; white-space: pre;" transform="translate(10, 31)" font-size="12px" font-family="Roboto, sans-serif"><tspan x="2" y="-7" dominant-baseline="ideographic">Usimamizi wa </tspan><tspan x="2" y="7" dominant-baseline="ideographic">Wanafunzi na </tspan><tspan x="2" y="21" dominant-baseline="ideographic">Shule</tspan></text></g></g></g><g id="g-root-tx_usimamiz_940qea1d6uoej-stroke" data-item-order="0" transform="translate(579, 252)"></g><g id="g-root-ic_work_1cynlb61d6xjb9-fill" data-item-order="0" transform="translate(194, 291)"></g><g id="g-root-ic_work_1cynlb61d6xjb9-stroke" data-item-order="0" transform="translate(194, 291)"><g id="ic_work_1cynlb61d6xjb9-stroke" fill="none" stroke-linecap="round" stroke-linejoin="round" stroke-miterlimit="4" stroke="#b7b7b7" stroke-width="2" stroke-opacity="1"><g><path d="M 31.375 26.875L 31.375 40.333302C 31.375 40.80835 31.674999 41.125 32.125 41.125L 44.851601 41.125M 44.875 44.874851L 44.875 27.625C 44.875 27.174999 44.574997 26.875 44.125 26.875L 11.875 26.875C 11.425 26.875 11.125 27.174999 11.125 27.625L 11.125 44.875M 11.125 32.875L 31.375 32.875M 26.875 22.375L 13.375 22.375C 12.175 22.375 11.125 21.325001 11.125 20.125L 11.125 13.375C 11.125 12.175 12.175 11.125 13.375 11.125L 26.875 11.125C 28.075001 11.125 29.125 12.175 29.125 13.375L 29.125 20.125C 29.125 21.475 28.075001 22.375 26.875 22.375ZM 20.125 22.375L 20.125 26.875M 37.675003 31.375L 38.574852 31.375M 37.675003 36.625L 38.574852 36.625M 43 22.524971L 34.75 22.524971M 43 18.024969L 34.75 18.024969"></path></g></g></g><g id="g-root-ic_audi_m9v25e1d6jhtu-fill" data-item-order="0" transform="translate(496, 291)"></g><g id="g-root-ic_audi_m9v25e1d6jhtu-stroke" data-item-order="0" transform="translate(496, 291)"><g id="ic_audi_m9v25e1d6jhtu-stroke" fill="none" stroke-linecap="round" stroke-linejoin="round" stroke-miterlimit="4" stroke="#1ac3fb" stroke-width="2" stroke-opacity="1"><g><path d="M 23.131001 14.875C 23.131001 17.153175 24.977825 19 27.256001 19C 29.534176 19 31.381001 17.153175 31.381001 14.875C 31.381001 12.596826 29.534176 10.75 27.256001 10.75C 24.977825 10.75 23.131001 12.596826 23.131001 14.875ZM 32.305 24.3055C 31.666723 22.057957 29.619982 20.502666 27.283596 20.489807C 24.947214 20.47695 22.883476 22.009617 22.220501 24.25M 20.506001 27.25L 34.006001 27.25M 22.3195 31.6765L 22.006001 27.25L 32.506001 27.25L 32.189499 31.7215M 27.25 30.658001C 27.042892 30.658001 26.875 30.825893 26.875 31.033001C 26.875 31.240107 27.042892 31.408001 27.25 31.408001C 27.457108 31.408001 27.625 31.240107 27.625 31.033001C 27.625 30.825893 27.457108 30.658001 27.25 30.658001L 27.25 30.658001M 24.610001 37.525002C 24.610001 39.471802 26.188196 41.049999 28.135 41.049999C 30.081802 41.049999 31.66 39.471802 31.66 37.525002C 31.66 35.578194 30.081802 34 28.135 34C 26.188196 34 24.610001 35.578194 24.610001 37.525002ZM 13.522 37.525002C 13.522 39.471802 15.100196 41.049999 17.047001 41.049999C 18.993803 41.049999 20.572001 39.471802 20.572001 37.525002C 20.572001 35.578194 18.993803 34 17.047001 34C 15.100196 34 13.522 35.578194 13.522 37.525002ZM 35.452 37.525002C 35.452 39.471802 37.030197 41.049999 38.976997 41.049999C 40.923805 41.049999 42.501999 39.471802 42.501999 37.525002C 42.501999 35.578194 40.923805 34 38.976997 34C 37.030197 34 35.452 35.578194 35.452 37.525002ZM 44.5 45.25C 43.166508 43.595676 41.155853 42.633862 39.030998 42.633862C 36.906151 42.633862 34.895493 43.595676 33.562 45.25C 32.18293 43.603233 30.147932 42.6483 28.000002 42.639999M 11.5 45.25C 12.833491 43.595676 14.844149 42.633862 16.969 42.633862C 19.093851 42.633862 21.104509 43.595676 22.438002 45.25C 23.817072 43.603233 25.85207 42.6483 28.000002 42.639999"></path></g></g></g><g id="g-root-tx_husaidia_3dxgi1d6w3yk-fill" data-item-order="0" transform="translate(50.1875, 286)"><g id="tx_husaidia_3dxgi1d6w3yk-fill-merged" stroke="none" fill="#f4f4f4" fill-opacity="1"><g><text style="font: 10.5px Roboto, sans-serif; white-space: pre;" transform="translate(106.8125, 28)" font-size="10.5px" font-family="Roboto, sans-serif"><tspan x="-73.81" y="-6" dominant-baseline="ideographic">Husaidia katika </tspan><tspan x="-94.81" y="6" dominant-baseline="ideographic">usimamizi wa ndani </tspan><tspan x="-77.98" y="18" dominant-baseline="ideographic">na mawasiliano.</tspan></text></g></g></g><g id="g-root-tx_husaidia_3dxgi1d6w3yk-stroke" data-item-order="0" transform="translate(50.1875, 286)"></g><g id="g-root-tx_husaidia_1utoa021d6upsc-fill" data-item-order="0" transform="translate(579, 294)"><g id="tx_husaidia_1utoa021d6upsc-fill-merged" stroke="none" fill="#f4f4f4" fill-opacity="1"><g><text style="font: 10.5px Roboto, sans-serif; white-space: pre;" transform="translate(10, 34)" font-size="10.5px" font-family="Roboto, sans-serif"><tspan x="2" y="-12" dominant-baseline="ideographic">Husaidia katika </tspan><tspan x="2" y="0" dominant-baseline="ideographic">kuongeza na </tspan><tspan x="2" y="12" dominant-baseline="ideographic">kusimamia wanafunzi </tspan><tspan x="2" y="24" dominant-baseline="ideographic">na shule.</tspan></text></g></g></g><g id="g-root-tx_husaidia_1utoa021d6upsc-stroke" data-item-order="0" transform="translate(579, 294)"></g><g id="g-root-ic_gate_dg3e021d6w4jr-fill" data-item-order="0" transform="translate(327, 359.99609375)"></g><g id="g-root-ic_gate_dg3e021d6w4jr-stroke" data-item-order="0" transform="translate(327, 359.99609375)"><g id="ic_gate_dg3e021d6w4jr-stroke" fill="none" stroke-linecap="round" stroke-linejoin="round" stroke-miterlimit="4" stroke="#f4f4f4" stroke-width="2" stroke-opacity="1"><g><path d="M 23.659 44.896C 23.657295 57.237453 33.661545 67.243088 46.002998 67.243088C 58.344456 67.243088 68.348701 57.237453 68.347 44.896C 68.348701 32.554543 58.344456 22.548914 46.002998 22.548914C 33.661545 22.548914 23.657295 32.554543 23.659 44.896M 70.368996 19.431999C 70.369003 21.8974 72.367607 23.896 74.833 23.896C 77.298401 23.896 79.297005 21.8974 79.297005 19.431999C 79.297005 16.9666 77.298401 14.968 74.833 14.968C 72.367607 14.968 70.369003 16.9666 70.369003 19.431999M 21.631001 19.431999C 21.631001 21.8974 19.632401 23.896 17.167 23.896C 14.701601 23.896 12.703 21.8974 12.703 19.431999C 12.703 16.9666 14.701601 14.968 17.167 14.968C 19.632401 14.968 21.631001 16.9666 21.631001 19.431999M 10 10M 34.375 64L 29.82328 70.437401L 12.765625 70.437103M 10 10M 58.5625 63.484299L 63.454002 70.437103L 79.2994 70.437401M 34.28125 25.79686L 29.820671 19.430649L 21.62686 19.430649M 10 10M 57.718601 25.84375L 62.1763 19.430649L 70.370201 19.430649M 10 10M 72.701202 63.8419L 79.2967 70.437401L 72.701202 77.0326M 19.29883 77.0326L 12.703369 70.437401L 19.29883 63.8419"></path></g></g></g><g id="g-root-tx_mfumowat_qpoh421d6w3yh-fill" data-item-order="0" transform="translate(24.046875, 365)"><g id="tx_mfumowat_qpoh421d6w3yh-fill-merged" stroke="none" fill="#f79438" fill-opacity="1"><g><text style="font: 12px Roboto, sans-serif; white-space: pre;" transform="translate(108.953125, 17)" font-size="12px" font-family="Roboto, sans-serif"><tspan x="-96.95" y="7" dominant-baseline="ideographic">Mfumo wa TSIMS</tspan></text></g></g></g><g id="g-root-tx_mfumowat_qpoh421d6w3yh-stroke" data-item-order="0" transform="translate(24.046875, 365)"></g><g id="g-root-ic_user_1d30qle1d6w35s-fill" data-item-order="0" transform="translate(345, 204)"></g><g id="g-root-ic_user_1d30qle1d6w35s-stroke" data-item-order="0" transform="translate(345, 204)"><g id="ic_user_1d30qle1d6w35s-stroke" fill="none" stroke-linecap="round" stroke-linejoin="round" stroke-miterlimit="4" stroke="#43dd93" stroke-width="2" stroke-opacity="1"><g><path d="M 27.25 40.75L 13.75 40.75C 12.093145 40.75 10.75 39.406857 10.75 37.75L 10.75 13.75C 10.75 12.093145 12.093145 10.75 13.75 10.75L 42.25 10.75C 43.906857 10.75 45.25 12.093145 45.25 13.75L 45.25 24.25M 16 14.131C 16.152214 14.13102 16.289318 14.223048 16.346992 14.363914C 16.404665 14.50478 16.371468 14.666533 16.26297 14.773294C 16.154472 14.880055 15.992205 14.910641 15.852287 14.850703C 15.71237 14.790765 15.622564 14.652196 15.625 14.5C 15.628277 14.29524 15.795214 14.130974 16 14.131M 10.75 18.256001L 45.25 18.256001M 20.5 14.131C 20.652214 14.13102 20.789318 14.223048 20.846992 14.363914C 20.904665 14.50478 20.871468 14.666533 20.76297 14.773294C 20.654472 14.880055 20.492205 14.910641 20.352287 14.850703C 20.21237 14.790765 20.122564 14.652196 20.125 14.5C 20.128277 14.29524 20.295214 14.130974 20.5 14.131M 25 14.131C 25.152214 14.13102 25.289318 14.223048 25.346992 14.363914C 25.404667 14.50478 25.371468 14.666533 25.26297 14.773294C 25.154474 14.880055 24.992205 14.910641 24.852287 14.850703C 24.71237 14.790765 24.622566 14.652196 24.625 14.5C 24.625 14.292893 24.792892 14.125 25 14.125M 45.25 45.25C 45.25 41.107864 41.892136 37.75 37.75 37.75C 33.607864 37.75 30.25 41.107864 30.25 45.25ZM 33.25 31.006001C 33.25 33.49128 35.264717 35.506001 37.75 35.506001C 40.235283 35.506001 42.25 33.49128 42.25 31.006001C 42.25 28.52072 40.235283 26.506001 37.75 26.506001C 35.264717 26.506001 33.25 28.52072 33.25 31.006001ZM 20.5 24.256001L 28 24.256001M 20.5 31.006001L 25 31.006001M 16 23.881001C 16.207108 23.881001 16.375 24.048893 16.375 24.256001C 16.375 24.463106 16.207108 24.631001 16 24.631001C 15.792893 24.631001 15.625 24.463106 15.625 24.256001C 15.625 24.048893 15.792893 23.881001 16 23.881001M 16 30.631001C 16.207108 30.631001 16.375 30.798893 16.375 31.006001C 16.375 31.213106 16.207108 31.381001 16 31.381001C 15.792893 31.381001 15.625 31.213106 15.625 31.006001C 15.625 30.798893 15.792893 30.631001 16 30.631001"></path></g></g></g><g id="g-root-tx_hutoanji_v6qxeq1d6w5ce-fill" data-item-order="0" transform="translate(140.359375, 192)"><g id="tx_hutoanji_v6qxeq1d6w5ce-fill-merged" stroke="none" fill="#f4f4f4" fill-opacity="1"><g><text style="font: 10.5px Roboto, sans-serif; white-space: pre;" transform="translate(94.640625, 28)" font-size="10.5px" font-family="Roboto, sans-serif"><tspan x="-63.03" y="-6" dominant-baseline="ideographic">Hutoa njia za </tspan><tspan x="-82.64" y="6" dominant-baseline="ideographic">mawasiliano kwa </tspan><tspan x="-40.48" y="18" dominant-baseline="ideographic">usaidizi.</tspan></text></g></g></g><g id="g-root-tx_hutoanji_v6qxeq1d6w5ce-stroke" data-item-order="0" transform="translate(140.359375, 192)"></g><g id="g-root-ic_2_8x5orm1d6tb0k-fill" data-item-order="0" transform="translate(171, 378)"></g><g id="g-root-ic_2_8x5orm1d6tb0k-stroke" data-item-order="0" transform="translate(171, 378)"><g id="ic_2_8x5orm1d6tb0k-stroke" fill="none" stroke-linecap="round" stroke-linejoin="round" stroke-miterlimit="4" stroke="#f79438" stroke-width="2" stroke-opacity="1"><g><path d="M 25.90015 21.625L 15.40015 21.625C 14.20015 21.625 13.15015 20.575001 13.15015 19.375L 13.15015 13.375C 13.15015 12.175 14.20015 11.125 15.40015 11.125L 25.90015 11.125C 27.100149 11.125 28.15015 12.175 28.15015 13.375L 28.15015 19.375C 28.15015 20.575001 27.250151 21.625 25.90015 21.625ZM 10 10M 19.150196 21.625L 18.100225 26.424999M 10 10M 22.15015 21.625L 23.35018 26.424999M 10 10M 15.175076 44.874851L 13.450075 30.625M 27.024851 26.424999L 11.125 26.424999L 11.125 30.624849L 25.375 30.624849M 11.125 44.875L 30.174999 44.875M 10 10M 28.225149 35.581451L 27.02515 44.874851M 38.125 20.125C 40.610352 20.125 42.625 18.110275 42.625 15.625C 42.625 13.139725 40.610352 11.125 38.125 11.125C 35.639648 11.125 33.625 13.139725 33.625 15.625C 33.625 18.110275 35.639648 20.125 38.125 20.125ZM 10 10M 41.425003 44.875L 42.625 33.625C 43.824997 33.625 44.875 32.575001 44.875 31.375L 44.875 29.125C 44.875 25.375 41.875 22.375 38.125 22.375C 34.375 22.375 31.375 25.375 31.375 29.125L 31.375 31.375C 31.375 32.575001 32.424999 33.625 33.625 33.625L 34.824997 44.875L 41.425003 44.875Z"></path></g></g></g><g id="g-root-ic_mark_1hgcfj61d6nnrf-fill" data-item-order="0" transform="translate(519, 378)"></g><g id="g-root-ic_mark_1hgcfj61d6nnrf-stroke" data-item-order="0" transform="translate(519, 378)"><g id="ic_mark_1hgcfj61d6nnrf-stroke" fill="none" stroke-linecap="round" stroke-linejoin="round" stroke-miterlimit="4" stroke="#f366bb" stroke-width="2" stroke-opacity="1"><g><path d="M 43.599998 45.240997L 34.4785 36.119499L 32.5495 31.008999L 37.66 32.938L 45.25 40.521999M 31.75 39.2575L 12.25 39.2575C 11.421573 39.2575 10.75 38.58593 10.75 37.7575L 10.75 15.2575C 10.75 14.429072 11.421573 13.7575 12.25 13.7575L 39.25 13.7575C 40.078426 13.7575 40.75 14.429072 40.75 15.2575L 40.75 30.2575M 18.251499 10.759L 18.251499 16.009001M 33.251499 10.759L 33.251499 16.009001M 10.7515 19.759001L 40.751499 19.759001M 18.251499 24.258999L 15.2515 27.258999M 18.251499 27.258999L 15.2515 24.258999M 27.251501 24.258999L 24.251501 27.258999M 27.251501 27.258999L 24.251501 24.258999M 36.251499 24.258999L 33.251499 27.258999M 36.251499 27.258999L 33.251499 24.258999M 18.251499 31.758999L 15.2515 34.759003M 18.251499 34.759003L 15.2515 31.758999"></path></g></g></g><g id="g-root-tx_usimamiz_959oki1d6uqkn-fill" data-item-order="0" transform="translate(603, 358)"><g id="tx_usimamiz_959oki1d6uqkn-fill-merged" stroke="none" fill="#f366bb" fill-opacity="1"><g><text style="font: 12px Roboto, sans-serif; white-space: pre;" transform="translate(10, 24)" font-size="12px" font-family="Roboto, sans-serif"><tspan x="2" y="0" dominant-baseline="ideographic">Usimamizi wa </tspan><tspan x="2" y="14" dominant-baseline="ideographic">Mitihani</tspan></text></g></g></g><g id="g-root-tx_usimamiz_959oki1d6uqkn-stroke" data-item-order="0" transform="translate(603, 358)"></g><g id="g-root-tx_huungani_m9uyzm1d6w4qq-fill" data-item-order="0" transform="translate(18.140625, 379)"><g id="tx_huungani_m9uyzm1d6w4qq-fill-merged" stroke="none" fill="#f4f4f4" fill-opacity="1"><g><text style="font: 10.5px Roboto, sans-serif; white-space: pre;" transform="translate(114.859375, 28)" font-size="10.5px" font-family="Roboto, sans-serif"><tspan x="-77.86" y="-6" dominant-baseline="ideographic">Huunganisha na </tspan><tspan x="-102.86" y="6" dominant-baseline="ideographic">mfumo wa usimamizi </tspan><tspan x="-54.69" y="18" dominant-baseline="ideographic">wa walimu.</tspan></text></g></g></g><g id="g-root-tx_huungani_m9uyzm1d6w4qq-stroke" data-item-order="0" transform="translate(18.140625, 379)"></g><g id="g-root-tx_husaidia_1ulk3vm1d6w3d4-fill" data-item-order="0" transform="translate(603, 386)"><g id="tx_husaidia_1ulk3vm1d6w3d4-fill-merged" stroke="none" fill="#f4f4f4" fill-opacity="1"><g><text style="font: 10.5px Roboto, sans-serif; white-space: pre;" transform="translate(10, 28)" font-size="10.5px" font-family="Roboto, sans-serif"><tspan x="2" y="-6" dominant-baseline="ideographic">Husaidia katika </tspan><tspan x="2" y="6" dominant-baseline="ideographic">kuunda na kuratibu </tspan><tspan x="2" y="18" dominant-baseline="ideographic">mitihani.</tspan></text></g></g></g><g id="g-root-tx_husaidia_1ulk3vm1d6w3d4-stroke" data-item-order="0" transform="translate(603, 386)"></g><g id="g-root-tx_mfumowau_147dqci1d6upsd-fill" data-item-order="0" transform="translate(502, 152)"><g id="tx_mfumowau_147dqci1d6upsd-fill-merged" stroke="none" fill="#ffe711" fill-opacity="1"><g><text style="font: 12px Roboto, sans-serif; white-space: pre;" transform="translate(10, 24)" font-size="12px" font-family="Roboto, sans-serif"><tspan x="2" y="0" dominant-baseline="ideographic">Mfumo wa </tspan><tspan x="2" y="14" dominant-baseline="ideographic">Uthibitisho</tspan></text></g></g></g><g id="g-root-tx_mfumowau_147dqci1d6upsd-stroke" data-item-order="0" transform="translate(502, 152)"></g><g id="g-root-tx_mfumowaw_1hdug0y1d6w2yt-fill" data-item-order="0" transform="translate(142.203125, 164)"><g id="tx_mfumowaw_1hdug0y1d6w2yt-fill-merged" stroke="none" fill="#4f91fc" fill-opacity="1"><g><text style="font: 12px Roboto, sans-serif; white-space: pre;" transform="translate(92.796875, 24)" font-size="12px" font-family="Roboto, sans-serif"><tspan x="-59.16" y="0" dominant-baseline="ideographic">Mfumo wa </tspan><tspan x="-80.8" y="14" dominant-baseline="ideographic">Wasiliana Nasi</tspan></text></g></g></g><g id="g-root-tx_mfumowaw_1hdug0y1d6w2yt-stroke" data-item-order="0" transform="translate(142.203125, 164)"></g><g id="g-root-tx_mfumowam_1hbz0rm1d6w3yf-fill" data-item-order="0" transform="translate(85.84375, 457)"><g id="tx_mfumowam_1hbz0rm1d6w3yf-fill-merged" stroke="none" fill="#fb6762" fill-opacity="1"><g><text style="font: 12px Roboto, sans-serif; white-space: pre;" transform="translate(71.15625, 24)" font-size="12px" font-family="Roboto, sans-serif"><tspan x="-59.16" y="0" dominant-baseline="ideographic">Mfumo wa </tspan><tspan x="-46.58" y="14" dominant-baseline="ideographic">Maswali</tspan></text></g></g></g><g id="g-root-tx_mfumowam_1hbz0rm1d6w3yf-stroke" data-item-order="0" transform="translate(85.84375, 457)"></g><g id="g-root-ic_aler_18lygma1d6nqbu-fill" data-item-order="0" transform="translate(194, 465)"></g><g id="g-root-ic_aler_18lygma1d6nqbu-stroke" data-item-order="0" transform="translate(194, 465)"><g id="ic_aler_18lygma1d6nqbu-stroke" fill="none" stroke-linecap="round" stroke-linejoin="round" stroke-miterlimit="4" stroke="#fb6762" stroke-width="2" stroke-opacity="1"><g><path d="M 20.806 24.0625L 35.056 24.0625C 35.056 24.0625 36.931 24.0625 36.931 25.9375L 36.931 42.4375C 36.931 42.4375 36.931 44.3125 35.056 44.3125L 20.806 44.3125C 20.806 44.3125 18.931 44.3125 18.931 42.4375L 18.931 25.9375C 18.931 25.9375 18.931 24.0625 20.806 24.0625M 27.931 11.6875L 27.931 14.938M 39.932499 16.630001L 37.634499 18.927999M 44.875 28.5625L 41.6245 28.5625M 11.125 28.5625L 14.3755 28.5625M 16.067501 16.630001L 18.365499 18.927999M 25.1185 31.9375C 25.1185 30.384201 26.377701 29.125002 27.931 29.125002C 29.484303 29.125002 30.7435 30.384201 30.7435 31.937502C 30.7435 33.490803 29.484303 34.75 27.931 34.75M 27.931 38.125C 27.62034 38.125 27.3685 38.376842 27.3685 38.6875C 27.3685 38.998161 27.62034 39.25 27.931 39.25C 28.241661 39.25 28.4935 38.998161 28.4935 38.6875C 28.4935 38.376842 28.241661 38.125 27.931 38.125L 27.931 38.125"></path></g></g></g><g id="g-root-ic_edit_1q6d6021d6qhhg-fill" data-item-order="0" transform="translate(496, 465)"></g><g id="g-root-ic_edit_1q6d6021d6qhhg-stroke" data-item-order="0" transform="translate(496, 465)"><g id="ic_edit_1q6d6021d6qhhg-stroke" fill="none" stroke-linecap="round" stroke-linejoin="round" stroke-miterlimit="4" stroke="#a6da37" stroke-width="2" stroke-opacity="1"><g><path d="M 44.317001 32.684502L 32.870499 44.129501L 27.245499 45.254501L 28.370499 39.629501L 39.817001 28.1845C 40.411564 27.588833 41.218628 27.254097 42.060249 27.254097C 42.901871 27.254097 43.708931 27.588833 44.303497 28.184498L 44.317001 28.196499C 45.556046 29.435942 45.556046 31.445057 44.316998 32.684498ZM 22.75 45.25L 12.25 45.25C 11.421573 45.25 10.75 44.578426 10.75 43.75L 10.75 12.25C 10.75 11.421573 11.421573 10.75 12.25 10.75L 32.185001 10.75C 32.585869 10.751664 32.969391 10.913716 33.25 11.2L 38.800003 16.75C 39.081322 17.031239 39.239414 17.412708 39.239502 17.810499L 39.239502 22.75M 15.2455 33.254501L 28.745499 33.254501M 17.5 25.75L 19 25.75C 19.414213 25.75 19.75 26.085787 19.75 26.5L 19.75 33.25L 19.75 33.25L 16.75 33.25L 16.75 33.25L 16.75 26.5C 16.75 26.085787 17.085787 25.75 17.5 25.75ZM 25.75 33.25L 25.75 22C 25.75 21.585787 25.414213 21.25 25 21.25L 23.5 21.25C 23.085787 21.25 22.75 21.585787 22.75 22L 22.75 33.25M 31.75 28.75L 31.75 25C 31.75 24.585787 31.414213 24.25 31 24.25L 29.5 24.25C 29.085787 24.25 28.75 24.585787 28.75 25L 28.75 33.25"></path></g></g></g><g id="g-root-tx_uingizaj_1q5qlr61d6w45d-fill" data-item-order="0" transform="translate(579, 452)"><g id="tx_uingizaj_1q5qlr61d6w45d-fill-merged" stroke="none" fill="#a6da37" fill-opacity="1"><g><text style="font: 12px Roboto, sans-serif; white-space: pre;" transform="translate(10, 17)" font-size="12px" font-family="Roboto, sans-serif"><tspan x="2" y="7" dominant-baseline="ideographic">Uingizaji wa Alama</tspan></text></g></g></g><g id="g-root-tx_uingizaj_1q5qlr61d6w45d-stroke" data-item-order="0" transform="translate(579, 452)"></g><g id="g-root-tx_hutoamaj_140iiea1d6w5jc-fill" data-item-order="0" transform="translate(46.546875, 485)"><g id="tx_hutoamaj_140iiea1d6w5jc-fill-merged" stroke="none" fill="#f4f4f4" fill-opacity="1"><g><text style="font: 10.5px Roboto, sans-serif; white-space: pre;" transform="translate(110.453125, 22)" font-size="10.5px" font-family="Roboto, sans-serif"><tspan x="-86.13" y="0" dominant-baseline="ideographic">Hutoa majibu kwa </tspan><tspan x="-98.45" y="12" dominant-baseline="ideographic">maswali ya kawaida.</tspan></text></g></g></g><g id="g-root-tx_hutoamaj_140iiea1d6w5jc-stroke" data-item-order="0" transform="translate(46.546875, 485)"></g><g id="g-root-tx_husaidia_1lr6baa1d6uq6n-fill" data-item-order="0" transform="translate(311.828125, 652)"><g id="tx_husaidia_1lr6baa1d6uq6n-fill-merged" stroke="none" fill="#f4f4f4" fill-opacity="1"><g><text style="font: 10.5px Roboto, sans-serif; white-space: pre;" transform="translate(61.171875, 28)" font-size="10.5px" font-family="Roboto, sans-serif"><tspan x="-37.2" y="-6" dominant-baseline="ideographic">Husaidia katika </tspan><tspan x="-49.17" y="6" dominant-baseline="ideographic">kukusanya maoni na </tspan><tspan x="-35.47" y="18" dominant-baseline="ideographic">mapendekezo.</tspan></text></g></g></g><g id="g-root-tx_husaidia_1lr6baa1d6uq6n-stroke" data-item-order="0" transform="translate(311.828125, 652)"></g><g id="g-root-tx_husaidia_meuroi1d6upze-fill" data-item-order="0" transform="translate(314.7265625, 114)"><g id="tx_husaidia_meuroi1d6upze-fill-merged" stroke="none" fill="#f4f4f4" fill-opacity="1"><g><text style="font: 10.5px Roboto, sans-serif; white-space: pre;" transform="translate(58.2734375, 34)" font-size="10.5px" font-family="Roboto, sans-serif"><tspan x="-45.87" y="-12" dominant-baseline="ideographic">Husaidia watumiaji </tspan><tspan x="-46.27" y="0" dominant-baseline="ideographic">kujiunga na mfumo </tspan><tspan x="-37.32" y="12" dominant-baseline="ideographic">kupitia fomu za </tspan><tspan x="-27.76" y="24" dominant-baseline="ideographic">mtandaoni.</tspan></text></g></g></g><g id="g-root-tx_husaidia_meuroi1d6upze-stroke" data-item-order="0" transform="translate(314.7265625, 114)"></g><g id="g-root-tx_mfumowam_18lbt7m1d6uqrl-fill" data-item-order="0" transform="translate(330.9296875, 86)"><g id="tx_mfumowam_18lbt7m1d6uqrl-fill-merged" stroke="none" fill="#43dd93" fill-opacity="1"><g><text style="font: 12px Roboto, sans-serif; white-space: pre;" transform="translate(42.0703125, 24)" font-size="12px" font-family="Roboto, sans-serif"><tspan x="-30.07" y="0" dominant-baseline="ideographic">Mfumo wa </tspan><tspan x="-23.51" y="14" dominant-baseline="ideographic">Maombi</tspan></text></g></g></g><g id="g-root-tx_mfumowam_18lbt7m1d6uqrl-stroke" data-item-order="0" transform="translate(330.9296875, 86)"></g><g id="g-root-ic_seal_18i7m3m1d6jgg9-fill" data-item-order="0" transform="translate(258, 529)"></g><g id="g-root-ic_seal_18i7m3m1d6jgg9-stroke" data-item-order="0" transform="translate(258, 529)"><g id="ic_seal_18i7m3m1d6jgg9-stroke" fill="none" stroke-linecap="round" stroke-linejoin="round" stroke-miterlimit="4" stroke="#cb68f9" stroke-width="2" stroke-opacity="1"><g><path d="M 41.089001 11.2195L 37.238503 15.6205C 36.611195 16.338917 35.703747 16.750795 34.75 16.75L 21.25 16.75C 20.296253 16.750795 19.388805 16.338917 18.761499 15.620501L 14.911 11.2195M 14.9005 44.77L 18.25 40.75L 37.75 40.75L 41.099499 44.77M 28 16.796501L 28 40.75M 16 10.75L 40 10.75C 40 10.75 41.5 10.75 41.5 12.25L 41.5 43.75C 41.5 43.75 41.5 45.25 40 45.25L 16 45.25C 16 45.25 14.5 45.25 14.5 43.75L 14.5 12.25C 14.5 12.25 14.5 10.75 16 10.75"></path></g></g></g><g id="g-root-tx_sehemuza_1lwsbky1d6up6o-fill" data-item-order="0" transform="translate(232.96875, 38)"><g id="tx_sehemuza_1lwsbky1d6up6o-fill-merged" stroke="none" fill="#f4f4f4" fill-opacity="1"><g><text style="font: bold 20px Roboto, sans-serif; white-space: pre;" transform="translate(140.03125, 22)" font-weight="bold" font-size="20px" font-family="Roboto, sans-serif"><tspan x="-128.03" y="12" dominant-baseline="ideographic">Sehemu za Mfumo wa EMaS</tspan></text></g></g></g><g id="g-root-tx_sehemuza_1lwsbky1d6up6o-stroke" data-item-order="0" transform="translate(232.96875, 38)"></g><g id="g-root-ic_bars_18n7bmq1d6upe7-fill" data-item-order="0" transform="translate(432, 529)"></g><g id="g-root-ic_bars_18n7bmq1d6upe7-stroke" data-item-order="0" transform="translate(432, 529)"><g id="ic_bars_18n7bmq1d6upe7-stroke" fill="none" stroke-linecap="round" stroke-linejoin="round" stroke-miterlimit="4" stroke="#f79438" stroke-width="2" stroke-opacity="1"><g><path d="M 41.816502 16.75C 42.097824 17.031239 42.255913 17.412708 42.256001 17.810499L 42.256001 43.75C 42.256001 44.578426 41.584427 45.25 40.756001 45.25L 15.25 45.25C 14.421573 45.25 13.75 44.578426 13.75 43.75L 13.75 12.25C 13.75 11.421573 14.421573 10.75 15.25 10.75L 35.199997 10.75C 35.594151 10.752853 35.97134 10.910734 36.25 11.1895ZM 19.756001 21.25L 19.756001 37.75L 37.756001 37.75M 23.5 25.75L 26.5 25.75C 26.914213 25.75 27.25 26.085787 27.25 26.5L 27.25 37.75L 27.25 37.75L 22.75 37.75L 22.75 37.75L 22.75 26.5C 22.75 26.085787 23.085787 25.75 23.5 25.75ZM 31 30.25L 34 30.25C 34.414215 30.25 34.75 30.585787 34.75 31L 34.75 37.75L 34.75 37.75L 30.25 37.75L 30.25 37.75L 30.25 31C 30.25 30.585787 30.585787 30.25 31 30.25Z"></path></g></g></g><g id="g-root-tx_mfumowab_8x5ig21d6w45h-fill" data-item-order="0" transform="translate(123.65625, 547)"><g id="tx_mfumowab_8x5ig21d6w45h-fill-merged" stroke="none" fill="#cb68f9" fill-opacity="1"><g><text style="font: 12px Roboto, sans-serif; white-space: pre;" transform="translate(105.34375, 24)" font-size="12px" font-family="Roboto, sans-serif"><tspan x="-93.34" y="0" dominant-baseline="ideographic">Mfumo wa Barua </tspan><tspan x="-28.97" y="14" dominant-baseline="ideographic">Pepe</tspan></text></g></g></g><g id="g-root-tx_mfumowab_8x5ig21d6w45h-stroke" data-item-order="0" transform="translate(123.65625, 547)"></g><g id="g-root-ic_bubb_8znhya1d6yyv4-fill" data-item-order="0" transform="translate(345, 552)"></g><g id="g-root-ic_bubb_8znhya1d6yyv4-stroke" data-item-order="0" transform="translate(345, 552)"><g id="ic_bubb_8znhya1d6yyv4-stroke" fill="none" stroke-linecap="round" stroke-linejoin="round" stroke-miterlimit="4" stroke="#8769fd" stroke-width="2" stroke-opacity="1"><g><path d="M 20.125 17.725L 20.125 17.125C 20.125 16.225 20.725 15.625 21.625 15.625L 32.424999 15.625L 32.424999 11.125L 38.125 15.625L 43.375 15.625C 44.275002 15.625 44.875 16.225 44.875 17.125L 44.875 32.125C 44.875 33.025002 44.275002 33.625 43.375 33.625L 42.625 33.625M 36.625 40.375L 23.875 40.375L 17.875 44.875L 17.875 40.375L 12.625 40.375C 11.725 40.375 11.125 39.775002 11.125 38.875L 11.125 23.875C 11.125 22.974998 11.725 22.375 12.625 22.375L 36.625 22.375C 37.525002 22.375 38.125 22.974998 38.125 23.875L 38.125 38.875C 38.125 39.775002 37.525002 40.375 36.625 40.375ZM 25.047249 35.1469C 24.749516 35.435051 24.274481 35.427101 23.986481 35.1292L 20.157999 31.168751C 19.407999 30.418751 19.108015 29.21875 19.708015 28.168751C 20.458015 26.518749 22.557999 26.21875 23.908001 27.568748L 24.658001 28.318748L 25.408001 27.568748C 26.608 26.368752 28.708 26.668751 29.608 28.168751C 30.057999 29.21875 29.908001 30.418751 29.158001 31.168751L 25.047249 35.1469Z"></path></g></g></g><g id="g-root-tx_matokeon_zjg23m1d6w45f-fill" data-item-order="0" transform="translate(507, 548)"><g id="tx_matokeon_zjg23m1d6w45f-fill-merged" stroke="none" fill="#f79438" fill-opacity="1"><g><text style="font: 12px Roboto, sans-serif; white-space: pre;" transform="translate(10, 17)" font-size="12px" font-family="Roboto, sans-serif"><tspan x="2" y="7" dominant-baseline="ideographic">Matokeo na Ripoti</tspan></text></g></g></g><g id="g-root-tx_matokeon_zjg23m1d6w45f-stroke" data-item-order="0" transform="translate(507, 548)"></g><g id="g-root-tx_husaidia_1umt21u1d6w5ja-fill" data-item-order="0" transform="translate(115.21875, 575)"><g id="tx_husaidia_1umt21u1d6w5ja-fill-merged" stroke="none" fill="#f4f4f4" fill-opacity="1"><g><text style="font: 10.5px Roboto, sans-serif; white-space: pre;" transform="translate(113.78125, 22)" font-size="10.5px" font-family="Roboto, sans-serif"><tspan x="-73.81" y="0" dominant-baseline="ideographic">Husaidia katika </tspan><tspan x="-101.78" y="12" dominant-baseline="ideographic">mawasiliano na arifa.</tspan></text></g></g></g><g id="g-root-tx_husaidia_1umt21u1d6w5ja-stroke" data-item-order="0" transform="translate(115.21875, 575)"></g><g id="g-root-tx_hutoarip_m7zjqa1d6w5qc-fill" data-item-order="0" transform="translate(507, 562)"><g id="tx_hutoarip_m7zjqa1d6w5qc-fill-merged" stroke="none" fill="#f4f4f4" fill-opacity="1"><g><text style="font: 10.5px Roboto, sans-serif; white-space: pre;" transform="translate(10, 28)" font-size="10.5px" font-family="Roboto, sans-serif"><tspan x="2" y="-6" dominant-baseline="ideographic">Hutoa ripoti za kina </tspan><tspan x="2" y="6" dominant-baseline="ideographic">kuhusu utendaji wa </tspan><tspan x="2" y="18" dominant-baseline="ideographic">wanafunzi.</tspan></text></g></g></g><g id="g-root-tx_hutoarip_m7zjqa1d6w5qc-stroke" data-item-order="0" transform="translate(507, 562)"></g><g id="g-root-tx_mfumowae_dccsyq1d6uqdq-fill" data-item-order="0" transform="translate(330.9296875, 624)"><g id="tx_mfumowae_dccsyq1d6uqdq-fill-merged" stroke="none" fill="#8769fd" fill-opacity="1"><g><text style="font: 12px Roboto, sans-serif; white-space: pre;" transform="translate(42.0703125, 24)" font-size="12px" font-family="Roboto, sans-serif"><tspan x="-30.07" y="0" dominant-baseline="ideographic">Mfumo wa </tspan><tspan x="-29.52" y="14" dominant-baseline="ideographic">eMrejesho</tspan></text></g></g></g><g id="g-root-tx_mfumowae_dccsyq1d6uqdq-stroke" data-item-order="0" transform="translate(330.9296875, 624)"></g><g id="g-root-tx_husaidia_1cua3du1d6w5qa-fill" data-item-order="0" transform="translate(579, 466)"><g id="tx_husaidia_1cua3du1d6w5qa-fill-merged" stroke="none" fill="#f4f4f4" fill-opacity="1"><g><text style="font: 10.5px Roboto, sans-serif; white-space: pre;" transform="translate(10, 34)" font-size="10.5px" font-family="Roboto, sans-serif"><tspan x="2" y="-12" dominant-baseline="ideographic">Husaidia katika </tspan><tspan x="2" y="0" dominant-baseline="ideographic">kuingiza na </tspan><tspan x="2" y="12" dominant-baseline="ideographic">kuthibitisha alama za </tspan><tspan x="2" y="24" dominant-baseline="ideographic">wanafunzi.</tspan></text></g></g></g><g id="g-root-tx_husaidia_1cua3du1d6w5qa-stroke" data-item-order="0" transform="translate(579, 466)"></g></g></g><path id="w8z5b61dqk1ze" d="M65.283 12.757a.35.35 0 0 0 .584.157l5.203-5.141-6.183 3.523.396 1.461zm-2.216-11.7a.35.35 0 0 0-.522.305v3.111l3.276-1.868-2.754-1.548zm3.728 2.105l-4.25 2.421v2.445l6.391-3.644-2.141-1.222zm4.708 3.303a.35.35 0 0 0 0-.609l-1.592-.9-7.365 4.199v1.782a.35.35 0 0 0 .523.305l8.435-4.777z M44.542 2.513c0-.433.355-.783.792-.783s.792.35.792.783-.355.783-.792.783-.792-.35-.792-.783zm59.171 0c0-.433.355-.783.792-.783s.792.35.792.783-.355.783-.792.783-.792-.35-.792-.783zm-85.951 7.636h-1.27v-.487c-.276.201-.864.609-1.881.609-1.202 0-2.274-.794-2.137-2.078.118-1.106 1.153-1.584 1.848-1.727l2.17-.345c0-.539-.29-.956-1.064-1.006s-1.21.305-1.571 1.017l-1.124-.605c1.218-2.631 5.029-1.764 5.029.414v4.207zm-1.27-2.86c.006.396-.062 1.112-.819 1.59-.587.37-1.841.299-1.903-.395-.049-.555.461-.791.906-.898l1.816-.297zm72.662 2.86h-1.27v-.487c-.276.201-.864.609-1.881.609-1.202 0-2.274-.794-2.137-2.078.118-1.106 1.153-1.584 1.848-1.727l2.17-.345c0-.539-.29-.956-1.064-1.006s-1.21.305-1.571 1.017l-1.124-.605c1.218-2.631 5.029-1.764 5.029.414v4.207zm-1.27-2.86c.006.396-.062 1.112-.82 1.59-.587.37-1.841.299-1.903-.395-.049-.555.461-.791.906-.898l1.816-.297zM99.096 10.149H97.85v-8.45h1.246v4.895l2.68-2.559h1.738l-2.633 2.535 2.715 3.578h-1.556l-2.077-2.707-.867.844v1.863zm6.053-6.114h-1.255v6.113h1.255V4.035zm-59.2 0h-1.255v6.113h1.255V4.035zm5.584 6.113V1.697h1.255v2.695c.361-.346 1-.485 1.47-.485 1.452 0 2.477 1.082 2.457 2.448v3.792h-1.27v-3.68c0-.408-.214-1.339-1.315-1.339-.968 0-1.342.756-1.342 1.339v3.681h-1.255zm-4.76-4.894V4.039h.621a.45.45 0 0 0 .45-.45v-.855h1.251v1.305h1.309v1.215h-1.309v3.109c0 .293.105.664.648.664.365 0 .531-.035.736-.07v1.137s-.361.113-.857.113c-1.398 0-1.777-1.051-1.777-1.788V5.254h-1.071zM36.528 4.039h-1.394l2.191 6.106h1.125l1.234-3.918 1.238 3.918h1.129l2.188-6.106h-1.383l-1.359 3.93-1.256-3.93h-1.124l-1.242 3.957-1.348-3.957zM26.212 7.141c-.02 1.566 1.187 3.129 3.223 3.129 1.566 0 2.383-.918 2.734-1.719L31.172 8c-.315.399-.801 1.094-1.738 1.094-1.145 0-1.825-.781-1.891-1.52h4.625c.074-.284.148-.995-.03-1.559-.336-1.064-1.221-2.102-2.839-2.102s-3.088 1.152-3.088 3.227zm1.363-.75h3.348c-.055-.43-.566-1.301-1.623-1.301a1.79 1.79 0 0 0-1.725 1.301zm-8.758.75c.038 1.758 1.277 3.133 3.145 3.133 1.074 0 1.723-.477 1.961-.672v.547h1.242V1.703h-1.258v2.888c-.414-.36-1.062-.68-1.93-.68-1.91 0-3.198 1.473-3.16 3.23zm1.309-.08c0 1.119.723 1.978 1.836 1.978a1.88 1.88 0 0 0 1.94-1.904c0-1.371-1.011-1.99-1.972-1.99s-1.805.798-1.805 1.916zm76.683-.028C96.771 5.275 95.532 3.9 93.664 3.9c-1.074 0-1.723.477-1.961.672v-.547h-1.242v8.22h1.258V9.583c.414.36 1.063.68 1.93.68 1.91 0 3.198-1.473 3.16-3.23zm-1.309.08c0-1.119-.723-1.978-1.836-1.978a1.88 1.88 0 0 0-1.94 1.904c0 1.371 1.011 1.99 1.972 1.99S95.5 8.231 95.5 7.113zM106.441 10.173V4.036h1.254v.382c.361-.346 1-.485 1.47-.485 1.452 0 2.477 1.082 2.457 2.448v3.792h-1.27V6.492c0-.408-.214-1.339-1.315-1.339-.969 0-1.342.756-1.342 1.339v3.681h-1.254zm-30.383-.021V1.824h1.084l4.215 5.777V1.824h1.32v8.328h-1.094l-4.207-5.796v5.796h-1.319zM5.24 10.149H4V2.377h1.014l2.664 3.597 2.654-3.592h1.03v7.766h-1.256V4.762L7.678 8.068 5.24 4.742v5.407z" transform="translate(610, 712)" fill="#ababab88" stroke="none"></path></svg>