<?xml version="1.0" encoding="utf-8" standalone="yes"?>
<!DOCTYPE svg PUBLIC "-//W3C//DTD SVG 1.1//EN" "http://www.w3.org/Graphics/SVG/1.1/DTD/svg11.dtd">
<svg style="fill:none;stroke:none;fill-rule:evenodd;clip-rule:evenodd;stroke-linecap:round;stroke-linejoin:round;stroke-miterlimit:1.5;" version="1.1" xmlns="http://www.w3.org/2000/svg" xmlns:xlink="http://www.w3.org/1999/xlink" width="1008" height="546" viewBox="0 0 1008 546"><style class="text-font-style fontImports" data-font-family="Roboto">@import url(https://fonts.googleapis.com/css2?family=Roboto:wght@400;700&amp;amp;display=block);</style><g id="items" style="isolation: isolate"><g id="blend" style="mix-blend-mode: normal"><g id="g-root-cp_0_g-0_1ut13mq1ekiu4o-fill" data-item-order="-466407" transform="translate(98, 116.16796875)"></g><g id="g-root-cp_0_g-0_1ut13mq1ekiu4o-stroke" data-item-order="-466407" transform="translate(98, 116.16796875)"><g id="cp_0_g-0_1ut13mq1ekiu4o-stroke" fill="none" stroke-linecap="round" stroke-linejoin="round" stroke-miterlimit="4" stroke="#f4f4f4" stroke-width="2" stroke-dasharray="5.0, 7.0" stroke-opacity="1"><g><path d="M 10 189.832008C 16.6274 189.832008 22 184.459408 22 177.832008L 22 129.832008M 802 201.832008C 795.3726 201.832008 790 207.204608 790 213.832008L 790 261.832008M 214 177.832008L 214 97.361408C 214 50.857608 174.2244 12.824108 124 10.000208M 214 213.832008L 214 294.302608C 214 340.806408 253.7756 378.839908 304 381.663808M 406 213.832008L 406 294.302608C 406 340.806408 366.2244 378.839908 316.0001 381.663808M 406 177.832008L 406 97.361408C 406 50.857608 445.7756 12.824108 496 10.000208M 598 213.832008L 598 294.302608C 598 340.806408 637.7756 378.839908 688 381.663808M 598 177.832008L 598 97.361408C 598 50.857608 558.2244 12.824108 508 10.000208M 112 10.000208C 63.0523 12.752308 24.0289 48.946808 22.0766 93.832008M 789.9234 297.832008C 787.9711 342.717208 748.9478 378.911708 700.0001 381.663808"></path></g></g></g><g id="g-root-cp_common_g-common_1qd7lia1ekiuwx-fill" data-item-order="-466403" transform="translate(105, 210)"></g><g id="g-root-cp_common_g-common_1qd7lia1ekiuwx-stroke" data-item-order="-466403" transform="translate(105, 210)"><g id="cp_common_g-common_1qd7lia1ekiuwx-stroke" fill="none" stroke-linecap="round" stroke-linejoin="round" stroke-miterlimit="4" stroke="#f4f4f4" stroke-width="2" stroke-opacity="1"><g><path d="M 783 195L 783 177M 783 177L 778 182M 783 177L 788 182M 399 111L 399 93M 399 93L 394 98M 399 93L 404 98M 15 28L 15 10M 15 10L 10 15M 15 10L 20 15M 591 93L 591 111M 591 111L 596 106M 591 111L 586 106M 207 93L 207 111M 207 111L 212 106M 207 111L 202 106"></path></g></g></g><g id="g-root-cp_1_g-1_2_1d2dk821ekitc2-fill" data-item-order="-466384" transform="translate(121.99980163574219, 110)"><g id="cp_1_g-1_2_1d2dk821ekitc2-fill-merged" stroke="none" fill="#f79438" fill-opacity="1"><g><path d="M178 311.412C178 350.397 140.392 382 94 382C47.608 382 10.001 350.397 10.001 311.412 V98.588C10 59.603 47.608 28 94 28C140.392 28 178 59.603 178 98.588 V311.412"></path></g></g><g id="cp_1_g-1_2_1d2dk821ekitc2-fill-merged" stroke="none" fill="#f79438" fill-opacity="1"><g><path d="M88 16C88 19.314 90.686 22 94 22C97.314 22 100 19.314 100 16C100 12.686 97.314 10 94 10C90.686 10 88 12.686 88 16"></path></g></g></g><g id="g-root-cp_1_g-1_2_1d2dk821ekitc2-stroke" data-item-order="-466384" transform="translate(121.99980163574219, 110)"><g id="cp_1_g-1_2_1d2dk821ekitc2-stroke" fill="none" stroke-linecap="round" stroke-linejoin="round" stroke-miterlimit="4" stroke="#2c2c2c" stroke-width="2" stroke-opacity="1"><g><path d="M 10.000198 311.411693C 10.000198 350.396493 47.608298 381.999893 94.000198 381.999893C 140.392098 381.999893 178.000198 350.396493 178.000198 311.411693M 10.000198 311.411621L 10.000198 98.588303M 178.000198 311.411621L 178.000198 98.588303M 178.000198 98.5882C 178.000198 59.6034 140.392098 28 94.000198 28C 47.608298 28 10.000198 59.6034 10.000198 98.5882"></path></g></g><g id="cp_1_g-1_2_1d2dk821ekitc2-stroke" fill="none" stroke-linecap="round" stroke-linejoin="round" stroke-miterlimit="4" stroke="#2c2c2c" stroke-width="2" stroke-opacity="1"><g><path d="M 88.000198 16C 88.000198 19.313709 90.68649 22 94.000198 22C 97.313907 22 100.000198 19.313709 100.000198 16C 100.000198 12.686292 97.313907 10 94.000198 10C 90.68649 10 88.000198 12.686292 88.000198 16"></path></g></g></g><g id="g-root-cp_2_g-2_2_146qjz61ekiu4r-fill" data-item-order="-466348" transform="translate(314, 164)"><g id="cp_2_g-2_2_146qjz61ekiu4r-fill-merged" stroke="none" fill="#ffe711" fill-opacity="1"><g><path d="M10 80.588C10 41.603 47.608 10 94 10C140.392 10 178 41.603 178 80.588 V251.412C178 290.396 140.392 322 94 322C47.608 322 10 290.396 10 251.412 V80.588"></path></g></g><g id="cp_2_g-2_2_146qjz61ekiu4r-fill-merged" stroke="none" fill="#ffe711" fill-opacity="1"><g><path d="M88 334C88 337.314 90.686 340 94 340C97.314 340 100 337.314 100 334C100 330.686 97.314 328 94 328C90.686 328 88 330.686 88 334"></path></g></g></g><g id="g-root-cp_2_g-2_2_146qjz61ekiu4r-stroke" data-item-order="-466348" transform="translate(314, 164)"><g id="cp_2_g-2_2_146qjz61ekiu4r-stroke" fill="none" stroke-linecap="round" stroke-linejoin="round" stroke-miterlimit="4" stroke="#2c2c2c" stroke-width="2" stroke-opacity="1"><g><path d="M 88 334C 88 337.313709 90.686292 340 94 340C 97.313709 340 100 337.313709 100 334C 100 330.686292 97.313709 328 94 328C 90.686292 328 88 330.686292 88 334"></path></g></g><g id="cp_2_g-2_2_146qjz61ekiu4r-stroke" fill="none" stroke-linecap="round" stroke-linejoin="round" stroke-miterlimit="4" stroke="#2c2c2c" stroke-width="2" stroke-opacity="1"><g><path d="M 10 251.411758C 10 290.396558 47.6081 321.999958 94 321.999958C 140.3919 321.999958 178 290.396558 178 251.411758M 10 251.411713L 10 80.588242M 178 251.411713L 178 80.588242M 178 80.5882C 178 41.6034 140.3919 10 94 10C 47.6081 10 10 41.6034 10 80.5882"></path></g></g></g><g id="g-root-cp_3_g-3_2_zqx1uq1ekiux0-fill" data-item-order="-466314" transform="translate(505.99981689453125, 110)"><g id="cp_3_g-3_2_zqx1uq1ekiux0-fill-merged" stroke="none" fill="#43dd93" fill-opacity="1"><g><path d="M178 287.412C178 326.397 140.392 358 94 358C47.608 358 10.001 326.397 10.001 287.412 V98.588C10 59.603 47.608 28 94 28C140.392 28 178 59.603 178 98.588 V287.412"></path></g></g><g id="cp_3_g-3_2_zqx1uq1ekiux0-fill-merged" stroke="none" fill="#43dd93" fill-opacity="1"><g><path d="M88 16C88 19.314 90.686 22 94 22C97.314 22 100 19.314 100 16C100 12.686 97.314 10 94 10C90.686 10 88 12.686 88 16"></path></g></g></g><g id="g-root-cp_3_g-3_2_zqx1uq1ekiux0-stroke" data-item-order="-466314" transform="translate(505.99981689453125, 110)"><g id="cp_3_g-3_2_zqx1uq1ekiux0-stroke" fill="none" stroke-linecap="round" stroke-linejoin="round" stroke-miterlimit="4" stroke="#2c2c2c" stroke-width="2" stroke-opacity="1"><g><path d="M 88.000183 16C 88.000183 19.313709 90.686475 22 94.000183 22C 97.313892 22 100.000183 19.313709 100.000183 16C 100.000183 12.686292 97.313892 10 94.000183 10C 90.686475 10 88.000183 12.686292 88.000183 16"></path></g></g><g id="cp_3_g-3_2_zqx1uq1ekiux0-stroke" fill="none" stroke-linecap="round" stroke-linejoin="round" stroke-miterlimit="4" stroke="#2c2c2c" stroke-width="2" stroke-opacity="1"><g><path d="M 10.000183 287.411693C 10.000183 326.396493 47.608283 357.999893 94.000183 357.999893C 140.392083 357.999893 178.000183 326.396493 178.000183 287.411693M 10.000183 287.411652L 10.000183 98.588264M 178.000183 287.411652L 178.000183 98.588264M 178.000183 98.5882C 178.000183 59.6034 140.392083 28 94.000183 28C 47.608283 28 10.000183 59.6034 10.000183 98.5882"></path></g></g></g><g id="g-root-cp_4_g-4_2_qva1lu1ekivpp-fill" data-item-order="-466280" transform="translate(697.9771728515625, 164)"><g id="cp_4_g-4_2_qva1lu1ekivpp-fill-merged" stroke="none" fill="#4f91fc" fill-opacity="1"><g><path d="M10.023 80.588C10.023 41.603 47.631 10 94.023 10C140.415 10 178.023 41.603 178.023 80.588 V251.412C178.023 290.396 140.415 322 94.023 322C47.631 322 10.023 290.396 10.023 251.412 V80.588"></path></g></g><g id="cp_4_g-4_2_qva1lu1ekivpp-fill-merged" stroke="none" fill="#4f91fc" fill-opacity="1"><g><path d="M88.023 334C88.023 337.314 90.709 340 94.023 340C97.337 340 100.023 337.314 100.023 334C100.023 330.686 97.337 328 94.023 328C90.709 328 88.023 330.686 88.023 334"></path></g></g></g><g id="g-root-cp_4_g-4_2_qva1lu1ekivpp-stroke" data-item-order="-466280" transform="translate(697.9771728515625, 164)"><g id="cp_4_g-4_2_qva1lu1ekivpp-stroke" fill="none" stroke-linecap="round" stroke-linejoin="round" stroke-miterlimit="4" stroke="#2c2c2c" stroke-width="2" stroke-opacity="1"><g><path d="M 88.022827 334C 88.022827 337.313709 90.709119 340 94.022827 340C 97.336536 340 100.022827 337.313709 100.022827 334C 100.022827 330.686292 97.336536 328 94.022827 328C 90.709119 328 88.022827 330.686292 88.022827 334"></path></g></g><g id="cp_4_g-4_2_qva1lu1ekivpp-stroke" fill="none" stroke-linecap="round" stroke-linejoin="round" stroke-miterlimit="4" stroke="#2c2c2c" stroke-width="2" stroke-opacity="1"><g><path d="M 10.022827 251.411758C 10.022827 290.396558 47.630927 321.999958 94.022827 321.999958C 140.414727 321.999958 178.022827 290.396558 178.022827 251.411758M 10.022827 251.411713L 10.022827 80.588242M 178.022827 251.411713L 178.022827 80.588242M 178.022827 80.5882C 178.022827 41.6034 140.414727 10 94.022827 10C 47.630927 10 10.022827 41.6034 10.022827 80.5882"></path></g></g></g><g id="g-root-tx_mapinduz_dkg0bm1ekiu4u-fill" data-item-order="0" transform="translate(287.0390625, 38)"><g id="tx_mapinduz_dkg0bm1ekiu4u-fill-merged" stroke="none" fill="#f4f4f4" fill-opacity="1"><g><text style="font: bold 25px Roboto, sans-serif; white-space: pre;" transform="translate(216.9609375, 25)" font-weight="bold" font-size="25px" font-family="Roboto, sans-serif"><tspan x="-204.96" y="15" dominant-baseline="ideographic">Mapinduzi ya Usimamizi wa Mitihani</tspan></text></g></g></g><g id="g-root-tx_mapinduz_dkg0bm1ekiu4u-stroke" data-item-order="0" transform="translate(287.0390625, 38)"></g><g id="g-root-ic_doub_qn5vhe1ekwvt6-fill" data-item-order="0" transform="translate(170, 200)"></g><g id="g-root-ic_doub_qn5vhe1ekwvt6-stroke" data-item-order="0" transform="translate(170, 200)"><g id="ic_doub_qn5vhe1ekwvt6-stroke" fill="none" stroke-linecap="round" stroke-linejoin="round" stroke-miterlimit="4" stroke="#2c2c2c" stroke-width="2" stroke-opacity="1"><g><path d="M 23.5 61.752998C 23.5 65.480927 26.522079 68.502998 30.25 68.502998C 33.977924 68.502998 37 65.480927 37 61.752998C 37 58.025078 33.977924 55.003002 30.25 55.003002C 26.522079 55.003002 23.5 58.025078 23.5 61.752998ZM 47.064999 67.132004L 44.031998 65.379997C 44.655983 63.002258 44.655983 60.503746 44.031998 58.125999L 47.064999 56.374001C 47.782402 55.959774 48.028194 55.042419 47.613998 54.324997L 45.363998 50.425003C 44.949776 49.707596 44.032421 49.461807 43.314999 49.875999L 40.281998 51.625C 38.535244 49.89653 36.371189 48.649151 34 48.004002L 34 44.5C 34 43.671574 33.328426 43 32.5 43L 28 43C 27.171572 43 26.5 43.671574 26.5 44.5L 26.5 48.000999C 24.128189 48.647869 21.964073 49.89735 20.218 51.628002L 17.200001 49.882C 16.48258 49.467804 15.565226 49.713596 15.151 50.431L 12.901 54.331001C 12.486806 55.04842 12.732597 55.965775 13.45 56.380001L 16.483 58.132004C 15.859017 60.509747 15.859017 63.008255 16.483 65.386002L 13.45 67.138C 12.732597 67.552223 12.486806 68.469582 12.901 69.186996L 15.151 73.086998C 15.565226 73.804398 16.48258 74.050194 17.200001 73.636002L 20.233 71.887001C 21.976225 73.611069 24.134796 74.856201 26.5 75.501999L 26.5 79C 26.5 79.82843 27.171572 80.5 28 80.5L 32.5 80.5C 33.328426 80.5 34 79.82843 34 79L 34 75.501999C 36.371811 74.855133 38.535927 73.605652 40.281998 71.875L 43.314999 73.624001C 44.032421 74.038193 44.949776 73.792404 45.363998 73.074997L 47.613998 69.175003C 48.02412 68.458923 47.778812 67.546051 47.064999 67.132004ZM 55 30.253C 55 33.980923 58.022076 37.003002 61.75 37.003002C 65.477921 37.003002 68.5 33.980923 68.5 30.253C 68.5 26.525078 65.477921 23.503 61.75 23.503C 58.022076 23.503 55 26.525078 55 30.253ZM 44.935001 24.874001L 47.968002 26.625999C 47.344017 29.003744 47.344017 31.502256 47.968002 33.880001L 44.935001 35.632C 44.217598 36.046227 43.971806 36.963577 44.386002 37.681L 46.636002 41.581001C 47.050224 42.298401 47.967579 42.544193 48.685001 42.130001L 51.718002 40.381001C 53.464756 42.10947 55.628811 43.35685 58 44.001999L 58 47.5C 58 48.328426 58.671574 49 59.5 49L 64 49C 64.82843 49 65.5 48.328426 65.5 47.5L 65.5 44.001999C 67.871811 43.355133 70.035927 42.105652 71.781998 40.375L 74.815002 42.124001C 75.532425 42.538193 76.449776 42.292404 76.863998 41.574997L 79.113998 37.675003C 79.528198 36.957581 79.282402 36.040226 78.565002 35.625999L 75.531998 33.880001C 76.155983 31.502256 76.155983 29.003744 75.531998 26.626001L 78.565002 24.874001C 79.282402 24.459774 79.528198 23.542419 79.113998 22.825001L 76.863998 18.924999C 76.449776 18.207598 75.532425 17.961807 74.815002 18.375999L 71.781998 20.125C 70.035248 18.39653 67.871185 17.149149 65.5 16.504L 65.5 13C 65.5 12.171573 64.82843 11.5 64 11.5L 59.5 11.5C 58.671574 11.5 58 12.171573 58 13L 58 16.504C 55.628189 17.150867 53.464073 18.400349 51.718002 20.131001L 48.699997 18.382C 47.982582 17.967806 47.065224 18.213598 46.651001 18.931L 44.401001 22.830999C 43.988323 23.543169 44.22662 24.454853 44.935001 24.874001Z"></path></g></g></g><g id="g-root-ic_laun_1ha2zdu1ekg1l8-fill" data-item-order="0" transform="translate(554, 200)"></g><g id="g-root-ic_laun_1ha2zdu1ekg1l8-stroke" data-item-order="0" transform="translate(554, 200)"><g id="ic_laun_1ha2zdu1ekg1l8-stroke" fill="none" stroke-linecap="round" stroke-linejoin="round" stroke-miterlimit="4" stroke="#2c2c2c" stroke-width="2" stroke-opacity="1"><g><path d="M 25 22.33L 13 11.53L 13 80.5L 25 80.5L 25 22.33ZM 25 35.529999L 37 35.529999M 58 65.470001C 58 65.470001 55 29.469999 55 26.469999C 55 22 62.5 11.47 62.5 11.47C 62.5 11.47 70 22 70 26.469999C 70 32.470001 67 65.470001 67 65.470001ZM 68.470001 48.579998L 70 50.5C 72.721222 53.836578 75.226334 57.343731 77.499992 60.999992C 78.46769 63.383278 78.976601 65.927864 79 68.5L 79 73.959999C 79.003555 74.565567 78.642639 75.113869 78.085014 75.350037C 77.52739 75.586205 76.882454 75.463913 76.449997 75.040001L 67 65.470001M 56.619999 48.52L 55 50.5C 52.229839 53.827053 49.684212 57.334808 47.380001 61C 46.449875 63.390247 45.981594 65.935226 46.000004 68.500008L 46 73.93C 46.003025 74.535553 46.369862 75.079895 46.93 75.309998C 47.486557 75.542854 48.128883 75.41201 48.550003 74.979996L 58 65.470001M 65.5 73C 64.799255 75.609558 63.792255 78.127052 62.5 80.5C 61.207745 78.127052 60.200752 75.609558 59.5 73C 59.5 71.343147 60.843147 70 62.5 70C 64.156853 70 65.5 71.343147 65.5 73ZM 25 26.83L 13 38.829998L 25 50.079998L 13 61.330002L 25 73.330002M 44.5 43.329998C 40.357864 43.329998 37 39.972137 37 35.829998C 37 31.687864 40.357864 28.33 44.5 28.33"></path></g></g></g><g id="g-root-tx_kutoausa_8xra8y1ekzny9-fill" data-item-order="0" transform="translate(333.84375, 224)"><g id="tx_kutoausa_8xra8y1ekzny9-fill-merged" stroke="none" fill="#2c2c2c" fill-opacity="1"><g><text style="font: bold 20px Roboto, sans-serif; white-space: pre;" transform="translate(74.15625, 22)" font-weight="bold" font-size="20px" font-family="Roboto, sans-serif"><tspan x="-62.16" y="12" dominant-baseline="ideographic">Kutoa Usahihi</tspan></text></g></g></g><g id="g-root-tx_kutoausa_8xra8y1ekzny9-stroke" data-item-order="0" transform="translate(333.84375, 224)"></g><g id="g-root-tx_kutoauwa_dhbq1u1ekg2kv-fill" data-item-order="0" transform="translate(724.390625, 224)"><g id="tx_kutoauwa_dhbq1u1ekg2kv-fill-merged" stroke="none" fill="#2c2c2c" fill-opacity="1"><g><text style="font: bold 20px Roboto, sans-serif; white-space: pre;" transform="translate(67.609375, 22)" font-weight="bold" font-size="20px" font-family="Roboto, sans-serif"><tspan x="-55.61" y="12" dominant-baseline="ideographic">Kutoa Uwazi</tspan></text></g></g></g><g id="g-root-tx_kutoauwa_dhbq1u1ekg2kv-stroke" data-item-order="0" transform="translate(724.390625, 224)"></g><g id="g-root-ic_3_1uuwiw21ekit53-fill" data-item-order="0" transform="translate(14, 266)"></g><g id="g-root-ic_3_1uuwiw21ekit53-stroke" data-item-order="0" transform="translate(14, 266)"><g id="ic_3_1uuwiw21ekit53-stroke" fill="none" stroke-linecap="round" stroke-linejoin="round" stroke-miterlimit="4" stroke="#f4f4f4" stroke-width="2" stroke-opacity="1"><g><path d="M 71.5 53.5L 20.5 53.5L 14.617001 73.323997C 14.264724 75.086464 14.721104 76.914032 15.860598 78.303963C 17.000093 79.693909 18.702675 80.499809 20.5 80.5L 71.5 80.5C 73.297325 80.499809 74.999908 79.693909 76.139404 78.303963C 77.278893 76.914032 77.735275 75.086464 77.383003 73.323997ZM 26.5 38.5L 65.5 38.5C 68.813713 38.5 71.5 41.186291 71.5 44.5L 71.5 53.5L 71.5 53.5L 20.5 53.5L 20.5 53.5L 20.5 44.5C 20.5 41.186291 23.186291 38.5 26.5 38.5ZM 14.5 47.5C 14.5 49.156857 15.843145 50.5 17.5 50.5L 20.5 50.5L 20.5 44.5L 17.5 44.5C 15.843145 44.5 14.5 45.843143 14.5 47.5ZM 77.5 47.5C 77.5 49.156857 76.156853 50.5 74.5 50.5L 71.5 50.5L 71.5 44.5L 74.5 44.5C 76.156853 44.5 77.5 45.843143 77.5 47.5ZM 62.5 32.5L 62.5 18.742001C 62.499828 17.946415 62.183651 17.183477 61.621002 16.621L 57.379002 12.379C 56.816521 11.816352 56.053581 11.50017 55.258003 11.5L 32.5 11.5C 30.843145 11.5 29.5 12.843145 29.5 14.5L 29.5 32.5M 28 70C 28.414213 70 28.75 70.335785 28.75 70.75C 28.75 71.164215 28.414213 71.5 28 71.5C 27.585787 71.5 27.25 71.164215 27.25 70.75C 27.25 70.335785 27.585787 70 28 70M 37 70C 37.414215 70 37.75 70.335785 37.75 70.75C 37.75 71.164215 37.414215 71.5 37 71.5C 36.585785 71.5 36.25 71.164215 36.25 70.75C 36.25 70.335785 36.585785 70 37 70M 46 70C 46.414215 70 46.75 70.335785 46.75 70.75C 46.75 71.164215 46.414215 71.5 46 71.5C 45.585785 71.5 45.25 71.164215 45.25 70.75C 45.25 70.335785 45.585785 70 46 70M 55 70C 55.414215 70 55.75 70.335785 55.75 70.75C 55.75 71.164215 55.414215 71.5 55 71.5C 54.585785 71.5 54.25 71.164215 54.25 70.75C 54.25 70.335785 54.585785 70 55 70M 64 70C 64.414215 70 64.75 70.335785 64.75 70.75C 64.75 71.164215 64.414215 71.5 64 71.5C 63.585785 71.5 63.25 71.164215 63.25 70.75C 63.25 70.335785 63.585785 70 64 70M 32.5 62.5C 32.914215 62.5 33.25 62.835785 33.25 63.25C 33.25 63.664215 32.914215 64 32.5 64C 32.085785 64 31.75 63.664215 31.75 63.25C 31.75 62.835785 32.085785 62.5 32.5 62.5M 41.5 62.5C 41.914215 62.5 42.25 62.835785 42.25 63.25C 42.25 63.664215 41.914215 64 41.5 64C 41.085785 64 40.75 63.664215 40.75 63.25C 40.75 62.835785 41.085785 62.5 41.5 62.5M 50.5 62.5C 50.914215 62.5 51.25 62.835785 51.25 63.25C 51.25 63.664215 50.914215 64 50.5 64C 50.085785 64 49.75 63.664215 49.75 63.25C 49.75 62.835785 50.085785 62.5 50.5 62.5M 59.5 62.5C 59.914215 62.5 60.25 62.835785 60.25 63.25C 60.25 63.664215 59.914215 64 59.5 64C 59.085785 64 58.75 63.664215 58.75 63.25C 58.75 62.835785 59.085785 62.5 59.5 62.5"></path></g></g></g><g id="g-root-tx_kutoausa_1lrrtlu1ekzq4q-fill" data-item-order="0" transform="translate(333.40625, 260)"><g id="tx_kutoausa_1lrrtlu1ekzq4q-fill-merged" stroke="none" fill="#2c2c2c" fill-opacity="1"><g><text style="font: 15px Roboto, sans-serif; white-space: pre;" transform="translate(74.59375, 28)" font-size="15px" font-family="Roboto, sans-serif"><tspan x="-62.59" y="0" dominant-baseline="ideographic">Kutoa usahihi kwa </tspan><tspan x="-55.8" y="18" dominant-baseline="ideographic">wadau wa elimu</tspan></text></g></g></g><g id="g-root-tx_kutoausa_1lrrtlu1ekzq4q-stroke" data-item-order="0" transform="translate(333.40625, 260)"></g><g id="g-root-tx_kutoauwa_1urs8ma1ekg1l4-fill" data-item-order="0" transform="translate(714.296875, 260)"><g id="tx_kutoauwa_1urs8ma1ekg1l4-fill-merged" stroke="none" fill="#2c2c2c" fill-opacity="1"><g><text style="font: 15px Roboto, sans-serif; white-space: pre;" transform="translate(77.703125, 28)" font-size="15px" font-family="Roboto, sans-serif"><tspan x="-63.33" y="0" dominant-baseline="ideographic">Kutoa uwazi katika </tspan><tspan x="-65.7" y="18" dominant-baseline="ideographic">mchakato wa elimu</tspan></text></g></g></g><g id="g-root-tx_kutoauwa_1urs8ma1ekg1l4-stroke" data-item-order="0" transform="translate(714.296875, 260)"></g><g id="g-root-ic_moni_4m6ci1eksow9-fill" data-item-order="0" transform="translate(902, 266)"></g><g id="g-root-ic_moni_4m6ci1eksow9-stroke" data-item-order="0" transform="translate(902, 266)"><g id="ic_moni_4m6ci1eksow9-stroke" fill="none" stroke-linecap="round" stroke-linejoin="round" stroke-miterlimit="4" stroke="#f4f4f4" stroke-width="2" stroke-opacity="1"><g><path d="M 46.014999 66.699997C 46.276623 71.630348 47.865627 76.398392 50.613998 80.5L 32.215 80.5C 34.963375 76.398392 36.55238 71.630348 36.814003 66.700005M 25.315001 80.5L 57.514 80.5M 71.313995 52.900002L 71.313995 62.085999C 71.317986 63.308331 70.835213 64.481964 69.972298 65.347687C 69.10939 66.213409 67.937332 66.700012 66.715004 66.699997L 16.114 66.699997C 13.574728 66.698349 11.516655 64.640266 11.515 62.101002L 11.515 25.299999C 11.515 22.760042 13.574042 20.701 16.114 20.701L 31.494999 20.701M 43.684002 11.5L 77.418999 11.5C 77.418999 11.5 80.485001 11.5 80.485001 14.566L 80.485001 42.166C 80.485001 42.166 80.485001 45.232002 77.418999 45.232002L 43.684002 45.232002C 43.684002 45.232002 40.618 45.232002 40.618 42.166L 40.618 14.566C 40.618 14.566 40.618 11.5 43.684002 11.5M 40.618 19.927L 80.485001 19.927M 40.618 36.535L 80.485001 36.535M 40.618 28.630001L 80.485001 28.630001M 60.550003 19.93L 60.550003 45.235001M 70.149994 19.93L 70.149994 45.235001"></path></g></g></g><g id="g-root-tx_kuungani_1uljele1ekzqbr-fill" data-item-order="0" transform="translate(143.3125, 308)"><g id="tx_kuungani_1uljele1ekzqbr-fill-merged" stroke="none" fill="#2c2c2c" fill-opacity="1"><g><text style="font: bold 20px Roboto, sans-serif; white-space: pre;" transform="translate(72.6875, 34)" font-weight="bold" font-size="20px" font-family="Roboto, sans-serif"><tspan x="-60.69" y="0" dominant-baseline="ideographic">Kuunganisha </tspan><tspan x="-48.86" y="24" dominant-baseline="ideographic">Teknolojia</tspan></text></g></g></g><g id="g-root-tx_kuungani_1uljele1ekzqbr-stroke" data-item-order="0" transform="translate(143.3125, 308)"></g><g id="g-root-ic_sear_v5h9ya1ekzq4r-fill" data-item-order="0" transform="translate(362, 332)"></g><g id="g-root-ic_sear_v5h9ya1ekzq4r-stroke" data-item-order="0" transform="translate(362, 332)"><g id="ic_sear_v5h9ya1ekzq4r-stroke" fill="none" stroke-linecap="round" stroke-linejoin="round" stroke-miterlimit="4" stroke="#2c2c2c" stroke-width="2" stroke-opacity="1"><g><path d="M 74.5 23.5C 74.5 26.813709 71.813713 29.5 68.5 29.5L 17.5 29.5C 14.186292 29.5 11.5 26.813709 11.5 23.5L 11.5 17.5C 11.5 14.186292 14.186292 11.5 17.5 11.5L 68.5 11.5C 71.813713 11.5 74.5 14.186292 74.5 17.5ZM 17.5 47.5C 14.186292 47.5 11.5 44.813709 11.5 41.5L 11.5 35.5C 11.5 32.186291 14.186292 29.5 17.5 29.5L 68.5 29.5C 71.813713 29.5 74.5 32.186291 74.5 35.5L 74.5 40M 24.25 19.75C 23.835787 19.75 23.5 20.085787 23.5 20.5C 23.5 20.914213 23.835787 21.25 24.25 21.25C 24.664213 21.25 25 20.914213 25 20.5C 25 20.085787 24.664213 19.75 24.25 19.75L 24.25 19.75M 34.75 19.75C 34.335785 19.75 34 20.085787 34 20.5C 34 20.914213 34.335785 21.25 34.75 21.25C 35.164215 21.25 35.5 20.914213 35.5 20.5C 35.5 20.085787 35.164215 19.75 34.75 19.75L 34.75 19.75M 24.25 37.75C 23.835787 37.75 23.5 38.085785 23.5 38.5C 23.5 38.914215 23.835787 39.25 24.25 39.25C 24.664213 39.25 25 38.914215 25 38.5C 25 38.085785 24.664213 37.75 24.25 37.75L 24.25 37.75M 34.75 37.75C 34.335785 37.75 34 38.085785 34 38.5C 34 38.914215 34.335785 39.25 34.75 39.25C 35.164215 39.25 35.5 38.914215 35.5 38.5C 35.5 38.085785 35.164215 37.75 34.75 37.75L 34.75 37.75M 37 65.5L 17.5 65.5C 14.186292 65.5 11.5 62.813713 11.5 59.5L 11.5 53.5C 11.5 50.186291 14.186292 47.5 17.5 47.5L 41.5 47.5M 24.25 55.75C 23.835787 55.75 23.5 56.085785 23.5 56.5C 23.5 56.914215 23.835787 57.25 24.25 57.25C 24.664213 57.25 25 56.914215 25 56.5C 25 56.085785 24.664213 55.75 24.25 55.75L 24.25 55.75M 34.75 55.75C 34.335785 55.75 34 56.085785 34 56.5C 34 56.914215 34.335785 57.25 34.75 57.25C 35.164215 57.25 35.5 56.914215 35.5 56.5C 35.5 56.085785 35.164215 55.75 34.75 55.75L 34.75 55.75M 47.5 61.086998C 47.5 68.590889 53.583107 74.673996 61.086998 74.673996C 68.590889 74.673996 74.673996 68.590889 74.673996 61.086998C 74.673996 53.583107 68.590889 47.5 61.086998 47.5C 53.583107 47.5 47.5 53.583107 47.5 61.086998ZM 80.5 80.5L 70.756004 70.756004"></path></g></g></g><g id="g-root-tx_kutoakas_1upwtcy1ekg2kt-fill" data-item-order="0" transform="translate(539.921875, 308)"><g id="tx_kutoakas_1upwtcy1ekg2kt-fill-merged" stroke="none" fill="#2c2c2c" fill-opacity="1"><g><text style="font: bold 20px Roboto, sans-serif; white-space: pre;" transform="translate(60.078125, 22)" font-weight="bold" font-size="20px" font-family="Roboto, sans-serif"><tspan x="-48.08" y="12" dominant-baseline="ideographic">Kutoa Kasi</tspan></text></g></g></g><g id="g-root-tx_kutoakas_1upwtcy1ekg2kt-stroke" data-item-order="0" transform="translate(539.921875, 308)"></g><g id="g-root-ic_idea_1d14p7m1ekg0sh-fill" data-item-order="0" transform="translate(746, 332)"></g><g id="g-root-ic_idea_1d14p7m1ekg0sh-stroke" data-item-order="0" transform="translate(746, 332)"><g id="ic_idea_1d14p7m1ekg0sh-stroke" fill="none" stroke-linecap="round" stroke-linejoin="round" stroke-miterlimit="4" stroke="#2c2c2c" stroke-width="2" stroke-opacity="1"><g><path d="M 79 40L 79 67.063004C 79.000214 68.701294 77.686081 70.036789 76.048004 70.063004C 59.749001 70.540001 46 75.030998 46 80.5C 46 75.028 32.248001 70.537003 15.952 70.044998C 14.313921 70.018784 12.99979 68.683289 13 67.044998L 13 23.554001C 12.999884 22.749435 13.322946 21.978542 13.896633 21.414444C 14.470322 20.850344 15.246552 20.540323 16.051001 20.553999C 32.305 21.058001 46 25.543001 46 31M 20.5 34C 27.188187 34.354019 33.774223 35.793831 40.000004 38.263M 20.5 44.215C 27.187828 44.567261 33.773827 46.005035 40 48.472M 20.5 54.427002C 27.188026 54.777775 33.774265 56.215603 40 58.684002M 46 31.003L 46 80.127998M 73 29.5C 73.017441 24.918751 69.590698 21.055454 65.040115 20.526039C 60.489517 19.996624 56.267399 22.970053 55.232643 27.432949C 54.197887 31.895844 56.68074 36.423874 61 37.951L 61 41.5L 67 41.5L 67 37.953999C 70.589653 36.692505 72.993942 33.304855 73.000008 29.500002ZM 61 47.503002L 67 47.503002M 62.5 53.503002L 65.5 53.503002M 64 14.503L 64 11.503M 74.608002 18.898001L 76.729004 16.777M 53.395 18.898001L 51.271 16.777"></path></g></g></g><g id="g-root-tx_kutoakas_143m9pe1ekg2ku-fill" data-item-order="0" transform="translate(529.296875, 344)"><g id="tx_kutoakas_143m9pe1ekg2ku-fill-merged" stroke="none" fill="#2c2c2c" fill-opacity="1"><g><text style="font: 15px Roboto, sans-serif; white-space: pre;" transform="translate(70.703125, 37)" font-size="15px" font-family="Roboto, sans-serif"><tspan x="-58.7" y="-9" dominant-baseline="ideographic">Kutoa kasi katika </tspan><tspan x="-47.88" y="9" dominant-baseline="ideographic">usimamizi wa </tspan><tspan x="-28.72" y="27" dominant-baseline="ideographic">mitihani</tspan></text></g></g></g><g id="g-root-tx_kutoakas_143m9pe1ekg2ku-stroke" data-item-order="0" transform="translate(529.296875, 344)"></g><g id="g-root-tx_kuungani_zk1twi1ekzny8-fill" data-item-order="0" transform="translate(147.6015625, 368)"><g id="tx_kuungani_zk1twi1ekzny8-fill-merged" stroke="none" fill="#2c2c2c" fill-opacity="1"><g><text style="font: 15px Roboto, sans-serif; white-space: pre;" transform="translate(68.3984375, 37)" font-size="15px" font-family="Roboto, sans-serif"><tspan x="-43.37" y="-9" dominant-baseline="ideographic">Kuunganisha </tspan><tspan x="-42.54" y="9" dominant-baseline="ideographic">teknolojia na </tspan><tspan x="-56.4" y="27" dominant-baseline="ideographic">mahitaji ya elimu</tspan></text></g></g></g><g id="g-root-tx_kuungani_zk1twi1ekzny8-stroke" data-item-order="0" transform="translate(147.6015625, 368)"></g></g></g><path id="w18f23ky1euxw5g" d="M65.283 12.757a.35.35 0 0 0 .584.157l5.203-5.141-6.183 3.523.396 1.461zm-2.216-11.7a.35.35 0 0 0-.522.305v3.111l3.276-1.868-2.754-1.548zm3.728 2.105l-4.25 2.421v2.445l6.391-3.644-2.141-1.222zm4.708 3.303a.35.35 0 0 0 0-.609l-1.592-.9-7.365 4.199v1.782a.35.35 0 0 0 .523.305l8.435-4.777z M44.542 2.513c0-.433.355-.783.792-.783s.792.35.792.783-.355.783-.792.783-.792-.35-.792-.783zm59.171 0c0-.433.355-.783.792-.783s.792.35.792.783-.355.783-.792.783-.792-.35-.792-.783zm-85.951 7.636h-1.27v-.487c-.276.201-.864.609-1.881.609-1.202 0-2.274-.794-2.137-2.078.118-1.106 1.153-1.584 1.848-1.727l2.17-.345c0-.539-.29-.956-1.064-1.006s-1.21.305-1.571 1.017l-1.124-.605c1.218-2.631 5.029-1.764 5.029.414v4.207zm-1.27-2.86c.006.396-.062 1.112-.819 1.59-.587.37-1.841.299-1.903-.395-.049-.555.461-.791.906-.898l1.816-.297zm72.662 2.86h-1.27v-.487c-.276.201-.864.609-1.881.609-1.202 0-2.274-.794-2.137-2.078.118-1.106 1.153-1.584 1.848-1.727l2.17-.345c0-.539-.29-.956-1.064-1.006s-1.21.305-1.571 1.017l-1.124-.605c1.218-2.631 5.029-1.764 5.029.414v4.207zm-1.27-2.86c.006.396-.062 1.112-.82 1.59-.587.37-1.841.299-1.903-.395-.049-.555.461-.791.906-.898l1.816-.297zM99.096 10.149H97.85v-8.45h1.246v4.895l2.68-2.559h1.738l-2.633 2.535 2.715 3.578h-1.556l-2.077-2.707-.867.844v1.863zm6.053-6.114h-1.255v6.113h1.255V4.035zm-59.2 0h-1.255v6.113h1.255V4.035zm5.584 6.113V1.697h1.255v2.695c.361-.346 1-.485 1.47-.485 1.452 0 2.477 1.082 2.457 2.448v3.792h-1.27v-3.68c0-.408-.214-1.339-1.315-1.339-.968 0-1.342.756-1.342 1.339v3.681h-1.255zm-4.76-4.894V4.039h.621a.45.45 0 0 0 .45-.45v-.855h1.251v1.305h1.309v1.215h-1.309v3.109c0 .293.105.664.648.664.365 0 .531-.035.736-.07v1.137s-.361.113-.857.113c-1.398 0-1.777-1.051-1.777-1.788V5.254h-1.071zM36.528 4.039h-1.394l2.191 6.106h1.125l1.234-3.918 1.238 3.918h1.129l2.188-6.106h-1.383l-1.359 3.93-1.256-3.93h-1.124l-1.242 3.957-1.348-3.957zM26.212 7.141c-.02 1.566 1.187 3.129 3.223 3.129 1.566 0 2.383-.918 2.734-1.719L31.172 8c-.315.399-.801 1.094-1.738 1.094-1.145 0-1.825-.781-1.891-1.52h4.625c.074-.284.148-.995-.03-1.559-.336-1.064-1.221-2.102-2.839-2.102s-3.088 1.152-3.088 3.227zm1.363-.75h3.348c-.055-.43-.566-1.301-1.623-1.301a1.79 1.79 0 0 0-1.725 1.301zm-8.758.75c.038 1.758 1.277 3.133 3.145 3.133 1.074 0 1.723-.477 1.961-.672v.547h1.242V1.703h-1.258v2.888c-.414-.36-1.062-.68-1.93-.68-1.91 0-3.198 1.473-3.16 3.23zm1.309-.08c0 1.119.723 1.978 1.836 1.978a1.88 1.88 0 0 0 1.94-1.904c0-1.371-1.011-1.99-1.972-1.99s-1.805.798-1.805 1.916zm76.683-.028C96.771 5.275 95.532 3.9 93.664 3.9c-1.074 0-1.723.477-1.961.672v-.547h-1.242v8.22h1.258V9.583c.414.36 1.063.68 1.93.68 1.91 0 3.198-1.473 3.16-3.23zm-1.309.08c0-1.119-.723-1.978-1.836-1.978a1.88 1.88 0 0 0-1.94 1.904c0 1.371 1.011 1.99 1.972 1.99S95.5 8.231 95.5 7.113zM106.441 10.173V4.036h1.254v.382c.361-.346 1-.485 1.47-.485 1.452 0 2.477 1.082 2.457 2.448v3.792h-1.27V6.492c0-.408-.214-1.339-1.315-1.339-.969 0-1.342.756-1.342 1.339v3.681h-1.254zm-30.383-.021V1.824h1.084l4.215 5.777V1.824h1.32v8.328h-1.094l-4.207-5.796v5.796h-1.319zM5.24 10.149H4V2.377h1.014l2.664 3.597 2.654-3.592h1.03v7.766h-1.256V4.762L7.678 8.068 5.24 4.742v5.407z" transform="translate(875, 515)" fill="#ababab88" stroke="none"></path></svg>